<svg
   xmlns:dc="http://purl.org/dc/elements/1.1/"
   xmlns:cc="http://creativecommons.org/ns#"
   xmlns:rdf="http://www.w3.org/1999/02/22-rdf-syntax-ns#"
   xmlns:svg="http://www.w3.org/2000/svg"
   xmlns="http://www.w3.org/2000/svg"
   xmlns:sodipodi="http://sodipodi.sourceforge.net/DTD/sodipodi-0.dtd"
   xmlns:inkscape="http://www.inkscape.org/namespaces/inkscape"
   width="340"
   height="520"
   viewBox="0 0 89.958333 137.58333"
   version="1.1"
   id="svg7930"
   sodipodi:docname="robot_left.svg"
   inkscape:version="0.92.3 (2405546, 2018-03-11)">
  <defs
     id="defs7924" />
  <sodipodi:namedview
     id="base"
     pagecolor="#ffffff"
     bordercolor="#666666"
     borderopacity="1.0"
     inkscape:pageopacity="0.0"
     inkscape:pageshadow="2"
     inkscape:zoom="1.1580078"
     inkscape:cx="297.66908"
     inkscape:cy="283.66335"
     inkscape:document-units="mm"
     inkscape:current-layer="layer1"
     showgrid="false"
     units="px"
     inkscape:window-width="1920"
     inkscape:window-height="1015"
     inkscape:window-x="0"
     inkscape:window-y="0"
     inkscape:window-maximized="1" />
  <metadata
     id="metadata7927">
    <rdf:RDF>
      <cc:Work
         rdf:about="">
        <dc:format>image/svg+xml</dc:format>
        <dc:type
           rdf:resource="http://purl.org/dc/dcmitype/StillImage" />
        <dc:title></dc:title>
      </cc:Work>
    </rdf:RDF>
  </metadata>
  <g
     inkscape:label="Layer 1"
     inkscape:groupmode="layer"
     id="layer1"
     transform="translate(0,-159.41667)">
    <g
       transform="matrix(-0.26458333,0,0,0.26458333,236.43959,140.82215)"
       style="stroke:#0044aa"
       id="POLYLINE_1156_">
      <line
         style="fill:none;stroke:#0044aa;stroke-width:2;stroke-linecap:round;stroke-linejoin:round;stroke-miterlimit:10"
         id="line3979"
         y2="481.17999"
         x2="783.85999"
         y1="497.20001"
         x1="789.02002"
         class="st200" />
    </g>
    <g
       transform="matrix(-0.26458333,0,0,0.26458333,236.43959,140.82215)"
       style="stroke:#0044aa"
       id="POLYLINE_1155_">
      <line
         style="fill:none;stroke:#0044aa;stroke-width:2;stroke-linecap:round;stroke-linejoin:round;stroke-miterlimit:10"
         id="line3982"
         y2="471.26001"
         x2="814.63"
         y1="487.29001"
         x1="819.78998"
         class="st200" />
    </g>
    <g
       transform="matrix(-0.26458333,0,0,0.26458333,236.43959,140.82215)"
       style="stroke:#0044aa"
       id="POLYLINE_1154_">
      <line
         style="fill:none;stroke:#0044aa;stroke-width:2;stroke-linecap:round;stroke-linejoin:round;stroke-miterlimit:10"
         id="line3985"
         y2="494.73999"
         x2="741.75"
         y1="470.53"
         x1="718.96997"
         class="st200" />
    </g>
    <g
       transform="matrix(-0.26458333,0,0,0.26458333,236.43959,140.82215)"
       style="stroke:#0044aa"
       id="POLYLINE_1153_">
      <line
         style="fill:none;stroke:#0044aa;stroke-width:2;stroke-linecap:round;stroke-linejoin:round;stroke-miterlimit:10"
         id="line3988"
         y2="489.92001"
         x2="756.71997"
         y1="465.12"
         x1="735.75"
         class="st200" />
    </g>
    <g
       transform="matrix(-0.26458333,0,0,0.26458333,236.43959,140.82215)"
       style="stroke:#0044aa"
       id="POLYLINE_1152_">
      <line
         style="fill:none;stroke:#0044aa;stroke-width:2;stroke-linecap:round;stroke-linejoin:round;stroke-miterlimit:10"
         id="line3991"
         y2="463.92999"
         x2="837.39001"
         y1="432.97"
         x1="835.54999"
         class="st200" />
    </g>
    <g
       transform="matrix(-0.26458333,0,0,0.26458333,236.43959,140.82215)"
       style="stroke:#0044aa"
       id="POLYLINE_1151_">
      <line
         style="fill:none;stroke:#0044aa;stroke-width:2;stroke-linecap:round;stroke-linejoin:round;stroke-miterlimit:10"
         id="line3994"
         y2="458.95001"
         x2="852.87"
         y1="426.32999"
         x1="856.15997"
         class="st200" />
    </g>
    <g
       transform="matrix(-0.26458333,0,0,0.26458333,236.43959,140.82215)"
       style="stroke:#0044aa"
       id="POLYLINE_1150_">
      <line
         style="fill:none;stroke:#0044aa;stroke-width:2;stroke-linecap:round;stroke-linejoin:round;stroke-miterlimit:10"
         id="line3997"
         y2="489.38"
         x2="668.15002"
         y1="505.41"
         x1="663.02002"
         class="st200" />
    </g>
    <g
       transform="matrix(-0.26458333,0,0,0.26458333,236.43959,140.82215)"
       style="stroke:#0044aa"
       id="POLYLINE_1149_">
      <path
         inkscape:connector-curvature="0"
         style="fill:none;stroke:#0044aa;stroke-width:2;stroke-linecap:round;stroke-linejoin:round;stroke-miterlimit:10"
         id="path4000"
         d="m 617.24,266.61 c 4.86,-1.57 9.73,-3.13 14.59,-4.7 0.85,2.65 1.71,5.3 2.56,7.96 1.88,5.82 3.75,11.64 5.63,17.47 1.87,5.81 3.75,11.63 5.62,17.44 0.6,1.87 1.21,3.74 1.81,5.62 0.09,0.29 0.77,1.72 0.62,1.99 -0.18,0.31 -1.76,0.57 -2.08,0.67 -1.41,0.46 -2.83,0.91 -4.24,1.37 -2.59,0.83 -5.18,1.67 -7.76,2.5 -0.16,0.05 -0.32,0.1 -0.48,0.15"
         class="st200" />
    </g>
    <g
       transform="matrix(-0.26458333,0,0,0.26458333,236.43959,140.82215)"
       style="stroke:#0044aa"
       id="POLYLINE_1148_">
      <path
         inkscape:connector-curvature="0"
         style="fill:none;stroke:#0044aa;stroke-width:2;stroke-linecap:round;stroke-linejoin:round;stroke-miterlimit:10"
         id="path4003"
         d="m 635.61,323.63 c 4.86,-1.57 9.73,-3.13 14.59,-4.7 1.6,4.95 3.19,9.91 4.79,14.86 2.54,7.89 5.08,15.78 7.62,23.67 0.58,1.8 1.16,3.6 1.74,5.4"
         class="st200" />
    </g>
    <g
       transform="matrix(-0.26458333,0,0,0.26458333,236.43959,140.82215)"
       style="stroke:#0044aa"
       id="POLYLINE_1147_">
      <path
         inkscape:connector-curvature="0"
         style="fill:none;stroke:#0044aa;stroke-width:2;stroke-linecap:round;stroke-linejoin:round;stroke-miterlimit:10"
         id="path4006"
         d="m 656.57,313.47 c -1.58,-4.91 -3.16,-9.81 -4.74,-14.72 -2.86,-8.89 -5.73,-17.78 -8.59,-26.67 -1.03,-3.19 -2.06,-6.38 -3.08,-9.57 -0.27,-0.82 -0.53,-1.65 -0.8,-2.47 -0.15,-0.45 -0.21,-0.35 0.06,-0.57 0.23,-0.19 0.79,-0.25 1.07,-0.34 0.59,-0.19 1.18,-0.38 1.77,-0.57 1.76,-0.57 3.51,-1.13 5.27,-1.7 4.46,-1.44 8.92,-2.87 13.38,-4.31 3.4,-1.09 6.79,-2.19 10.19,-3.28 0.27,-0.09 0.73,-0.34 1.01,-0.32 0.34,0.02 0.04,-0.13 0.28,0.18 0.45,0.58 0.6,1.86 0.82,2.56 0.35,1.08 0.7,2.16 1.05,3.25 0.17,0.54 0.34,1.07 0.52,1.61"
         class="st200" />
    </g>
    <g
       transform="matrix(-0.26458333,0,0,0.26458333,236.43959,140.82215)"
       style="stroke:#0044aa"
       id="POLYLINE_1146_">
      <path
         inkscape:connector-curvature="0"
         style="fill:none;stroke:#0044aa;stroke-width:2;stroke-linecap:round;stroke-linejoin:round;stroke-miterlimit:10"
         id="path4009"
         d="m 714,378.26 c 2.18,6.76 4.35,13.51 6.53,20.27 0.31,0.97 0.62,1.94 0.94,2.9 -4.83,1.56 -9.67,3.11 -14.5,4.67 -0.69,0.22 -1.39,0.45 -2.08,0.67"
         class="st200" />
    </g>
    <g
       transform="matrix(-0.26458333,0,0,0.26458333,236.43959,140.82215)"
       style="stroke:#0044aa"
       id="POLYLINE_1145_">
      <line
         style="fill:none;stroke:#0044aa;stroke-width:2;stroke-linecap:round;stroke-linejoin:round;stroke-miterlimit:10"
         id="line4012"
         y2="317.78"
         x2="657.96002"
         y1="350.20001"
         x1="668.40002"
         class="st200" />
    </g>
    <g
       transform="matrix(-0.26458333,0,0,0.26458333,236.43959,140.82215)"
       style="stroke:#0044aa"
       id="POLYLINE_1144_">
      <line
         style="fill:none;stroke:#0044aa;stroke-width:2;stroke-linecap:round;stroke-linejoin:round;stroke-miterlimit:10"
         id="line4015"
         y2="378.26001"
         x2="714"
         y1="401.42999"
         x1="721.46002"
         class="st200" />
    </g>
    <g
       transform="matrix(-0.26458333,0,0,0.26458333,236.43959,140.82215)"
       style="stroke:#0044aa"
       id="POLYLINE_1143_">
      <path
         inkscape:connector-curvature="0"
         style="fill:none;stroke:#0044aa;stroke-width:2;stroke-linecap:round;stroke-linejoin:round;stroke-miterlimit:10"
         id="path4018"
         d="m 704.88,406.78 c 6.34,-2.04 12.68,-4.08 19.02,-6.13 0.9,-0.29 1.81,-0.58 2.71,-0.87 2.51,7.8 5.02,15.59 7.53,23.39 3.26,10.11 6.51,20.21 9.77,30.32 0.08,0.25 0.7,1.53 0.57,1.78 -0.06,0.11 -0.71,0.23 -0.83,0.27 -0.73,0.23 -1.45,0.47 -2.18,0.7 -5.31,1.71 -10.62,3.42 -15.93,5.13 -5.17,1.67 -10.35,3.33 -15.52,5 -0.35,0.11 -1.98,0.89 -2.29,0.7 -0.15,-0.09 -0.28,-0.88 -0.34,-1.05 -0.26,-0.81 -0.52,-1.62 -0.78,-2.43 -3.25,-10.08 -6.5,-20.17 -9.74,-30.25 -0.08,-0.25 -0.16,-0.5 -0.24,-0.75"
         class="st200" />
    </g>
    <g
       transform="matrix(-0.26458333,0,0,0.26458333,236.43959,140.82215)"
       style="stroke:#0044aa"
       id="POLYLINE_1142_">
      <path
         inkscape:connector-curvature="0"
         style="fill:none;stroke:#0044aa;stroke-width:2;stroke-linecap:round;stroke-linejoin:round;stroke-miterlimit:10"
         id="path4021"
         d="m 878.94,374.79 c -1.32,0.43 -2.64,0.85 -3.96,1.28 -1.01,0.32 -2.01,0.65 -3.02,0.97 -0.66,0.21 -1.49,0.35 -2.11,0.68 -0.23,0.13 -0.25,0.03 -0.31,0.2 -0.05,0.14 0.2,0.61 0.24,0.75 0.35,1.09 0.7,2.18 1.05,3.27 2.48,7.7 4.96,15.4 7.44,23.09 0.7,2.18 1.4,4.36 2.1,6.53 3.14,-1.01 6.28,-2.02 9.42,-3.04"
         class="st200" />
    </g>
    <g
       transform="matrix(-0.26458333,0,0,0.26458333,236.43959,140.82215)"
       style="stroke:#0044aa"
       id="POLYLINE_1141_">
      <path
         inkscape:connector-curvature="0"
         style="fill:none;stroke:#0044aa;stroke-width:2;stroke-linecap:round;stroke-linejoin:round;stroke-miterlimit:10"
         id="path4024"
         d="m 868.48,415.4 c 1.36,-0.44 2.72,-0.88 4.08,-1.31 0.92,-0.3 1.85,-0.59 2.77,-0.89 0.18,-0.06 1.22,-0.24 1.31,-0.42 0.1,-0.19 -0.37,-1.16 -0.43,-1.35 -0.38,-1.19 -0.77,-2.38 -1.15,-3.57 -2.43,-7.53 -4.85,-15.06 -7.28,-22.59 -0.67,-2.08 -1.34,-4.15 -2.01,-6.23 -1.36,0.44 -2.72,0.88 -4.08,1.31 -0.92,0.3 -1.85,0.59 -2.77,0.89 -0.18,0.06 -1.22,0.24 -1.31,0.42 -0.1,0.19 0.37,1.16 0.43,1.35 0.38,1.19 0.77,2.38 1.15,3.57 2.43,7.53 4.85,15.06 7.28,22.59 0.67,2.08 1.34,4.15 2.01,6.23 z"
         class="st200" />
    </g>
    <g
       transform="matrix(-0.26458333,0,0,0.26458333,236.43959,140.82215)"
       style="stroke:#0044aa"
       id="POLYLINE_1140_">
      <path
         inkscape:connector-curvature="0"
         style="fill:none;stroke:#0044aa;stroke-width:2;stroke-linecap:round;stroke-linejoin:round;stroke-miterlimit:10"
         id="path4027"
         d="m 864.87,416.56 c -3.24,1.05 -6.49,2.09 -9.73,3.14 -0.16,0.05 -0.95,0.44 -1.1,0.36 -0.06,-0.03 -0.1,-0.34 -0.13,-0.4 -0.39,-0.93 -0.63,-1.95 -0.94,-2.91 -2.52,-7.84 -5.05,-15.67 -7.57,-23.51 -0.74,-2.31 -1.49,-4.62 -2.23,-6.92 3.24,-1.05 6.49,-2.09 9.73,-3.14 0.16,-0.05 0.95,-0.44 1.1,-0.36 0.06,0.03 0.1,0.34 0.13,0.4 0.39,0.93 0.63,1.95 0.94,2.91 2.52,7.84 5.05,15.67 7.57,23.51 0.74,2.31 1.49,4.62 2.23,6.92 z"
         class="st200" />
    </g>
    <g
       transform="matrix(-0.26458333,0,0,0.26458333,236.43959,140.82215)"
       style="stroke:#0044aa"
       id="POLYLINE_1139_">
      <line
         style="fill:none;stroke:#0044aa;stroke-width:2;stroke-linecap:round;stroke-linejoin:round;stroke-miterlimit:10"
         id="line4030"
         y2="224.99001"
         x2="830.67999"
         y1="232.71001"
         x1="806.71002"
         class="st200" />
    </g>
    <g
       transform="matrix(-0.26458333,0,0,0.26458333,236.43959,140.82215)"
       style="stroke:#0044aa"
       id="POLYLINE_1138_">
      <path
         inkscape:connector-curvature="0"
         style="fill:none;stroke:#0044aa;stroke-width:2;stroke-linecap:round;stroke-linejoin:round;stroke-miterlimit:10"
         id="path4033"
         d="m 840.24,254.66 c -6.98,2.25 -13.96,4.5 -20.95,6.75 -1.01,0.32 -2.02,0.65 -3.03,0.97 -0.73,-2.27 -1.46,-4.54 -2.19,-6.8 -1.75,-5.45 -3.51,-10.89 -5.26,-16.34 -2.12,-6.59 -4.25,-13.19 -6.37,-19.78 -1.85,-5.73 -3.69,-11.46 -5.54,-17.19 -0.89,-2.77 -1.78,-5.54 -2.68,-8.31 -0.01,-0.04 -0.03,-0.08 -0.04,-0.12"
         class="st200" />
    </g>
    <g
       transform="matrix(-0.26458333,0,0,0.26458333,236.43959,140.82215)"
       style="stroke:#0044aa"
       id="POLYLINE_1137_">
      <path
         inkscape:connector-curvature="0"
         style="fill:none;stroke:#0044aa;stroke-width:2;stroke-linecap:round;stroke-linejoin:round;stroke-miterlimit:10"
         id="path4036"
         d="m 870.42,348.33 c -6.98,2.25 -13.96,4.5 -20.95,6.75 -1.01,0.32 -2.02,0.65 -3.03,0.97 -1.47,-4.57 -2.94,-9.13 -4.41,-13.7 -3.25,-10.08 -6.5,-20.16 -9.74,-30.25 -3.28,-10.18 -6.56,-20.35 -9.83,-30.53 -1.1,-3.43 -2.21,-6.86 -3.31,-10.28 -0.32,-0.99 -0.64,-1.99 -0.96,-2.98 -0.06,-0.19 -0.5,-1.08 -0.41,-1.27 0.15,-0.33 2.05,-0.68 2.39,-0.79 2.35,-0.76 4.69,-1.51 7.04,-2.27 4.57,-1.47 9.14,-2.95 13.71,-4.42 0.27,-0.09 0.55,-0.18 0.82,-0.26"
         class="st200" />
    </g>
    <g
       transform="matrix(-0.26458333,0,0,0.26458333,236.43959,140.82215)"
       style="stroke:#0044aa"
       id="POLYLINE_1136_">
      <path
         inkscape:connector-curvature="0"
         style="fill:none;stroke:#0044aa;stroke-width:2;stroke-linecap:round;stroke-linejoin:round;stroke-miterlimit:10"
         id="path4039"
         d="m 877.1,369.07 c -6.98,2.25 -13.96,4.5 -20.95,6.75 -1.01,0.32 -2.02,0.65 -3.03,0.97 -0.83,-2.59 -1.67,-5.18 -2.5,-7.76 -0.58,-1.81 -1.16,-3.61 -1.74,-5.42 -0.21,-0.65 -0.42,-1.3 -0.63,-1.95 -0.05,-0.15 -0.37,-0.79 -0.3,-0.94 0.09,-0.21 1.08,-0.39 1.32,-0.46 1.35,-0.44 2.71,-0.87 4.06,-1.31 3.75,-1.21 7.5,-2.41 11.24,-3.62 2.45,-0.79 4.89,-1.58 7.34,-2.36"
         class="st200" />
    </g>
    <g
       transform="matrix(-0.26458333,0,0,0.26458333,236.43959,140.82215)"
       style="stroke:#0044aa"
       id="POLYLINE_1135_">
      <path
         inkscape:connector-curvature="0"
         style="fill:none;stroke:#0044aa;stroke-width:2;stroke-linecap:round;stroke-linejoin:round;stroke-miterlimit:10"
         id="path4042"
         d="m 809,373.23 c 6.84,-2.2 13.68,-4.41 20.52,-6.61 3.69,-1.19 7.37,-2.37 11.06,-3.56 0.27,-0.09 1.33,-0.59 1.55,-0.45 0.21,0.13 0.36,1.12 0.43,1.35 0.29,0.91 0.59,1.82 0.88,2.72 1.29,3.99 2.57,7.99 3.86,11.98 -6.84,2.2 -13.68,4.41 -20.52,6.61 -3.69,1.19 -7.37,2.37 -11.06,3.56 -0.27,0.09 -1.33,0.59 -1.55,0.45 -0.21,-0.13 -0.36,-1.12 -0.43,-1.35 -0.29,-0.91 -0.59,-1.82 -0.88,-2.72 -1.29,-3.99 -2.57,-7.98 -3.86,-11.98 z"
         class="st200" />
    </g>
    <g
       transform="matrix(-0.26458333,0,0,0.26458333,236.43959,140.82215)"
       style="stroke:#0044aa"
       id="POLYLINE_1134_">
      <path
         inkscape:connector-curvature="0"
         style="fill:none;stroke:#0044aa;stroke-width:2;stroke-linecap:round;stroke-linejoin:round;stroke-miterlimit:10"
         id="path4045"
         d="m 835.66,410.45 c -0.13,-3.74 -2.33,-7.42 -5.81,-8.95 -3.41,-1.49 -7.36,-0.41 -9.47,2.69 -2.02,2.98 -1.99,7 -0.36,10.14 1.65,3.16 5.03,5.48 8.68,5.06 3.9,-0.45 6.58,-3.92 6.92,-7.69 0.05,-0.41 0.06,-0.83 0.04,-1.25 z"
         class="st200" />
    </g>
    <g
       transform="matrix(-0.26458333,0,0,0.26458333,236.43959,140.82215)"
       style="stroke:#0044aa"
       id="POLYLINE_1133_">
      <path
         inkscape:connector-curvature="0"
         style="fill:none;stroke:#0044aa;stroke-width:2;stroke-linecap:round;stroke-linejoin:round;stroke-miterlimit:10"
         id="path4048"
         d="m 721.62,354.43 c 1.39,4.32 2.78,8.64 4.18,12.97 2.21,6.86 4.42,13.71 6.62,20.57 0.51,1.58 1.02,3.17 1.53,4.75 8.19,-2.64 16.39,-5.28 24.58,-7.92 5.94,-1.91 11.89,-3.83 17.83,-5.74 3.43,-1.1 6.94,-2.07 10.31,-3.32 0.49,-0.18 0.44,-0.1 0.27,-0.62 -0.33,-1.02 -0.66,-2.03 -0.98,-3.05 -1.34,-4.15 -2.68,-8.31 -4.01,-12.46 -3.87,-12.02 -7.74,-24.04 -11.62,-36.06 -2.51,-7.8 -5.03,-15.61 -7.54,-23.41 -0.04,-0.12 -0.08,-0.24 -0.11,-0.36"
         class="st200" />
    </g>
    <g
       transform="matrix(-0.26458333,0,0,0.26458333,236.43959,140.82215)"
       style="stroke:#0044aa"
       id="POLYLINE_1132_">
      <path
         inkscape:connector-curvature="0"
         style="fill:none;stroke:#0044aa;stroke-width:2;stroke-linecap:round;stroke-linejoin:round;stroke-miterlimit:10"
         id="path4051"
         d="m 789.5,153.3 c 1.47,3.81 2.73,7.66 3.85,11.58 4.75,-1.53 9.5,-3.06 14.25,-4.59 0.68,-0.22 1.36,-0.44 2.03,-0.66"
         class="st200" />
    </g>
    <g
       transform="matrix(-0.26458333,0,0,0.26458333,236.43959,140.82215)"
       style="stroke:#0044aa"
       id="POLYLINE_1131_">
      <path
         inkscape:connector-curvature="0"
         style="fill:none;stroke:#0044aa;stroke-width:2;stroke-linecap:round;stroke-linejoin:round;stroke-miterlimit:10"
         id="path4054"
         d="m 638.15,214.88 c 4.31,-1.39 8.62,-2.78 12.94,-4.17 7.93,-2.55 15.85,-5.11 23.78,-7.66 2.97,-0.96 5.94,-1.91 8.91,-2.87 0.83,-0.27 1.65,-0.53 2.48,-0.8 0.16,-0.05 0.64,-0.13 0.7,-0.26 0.12,-0.27 -0.46,-1.43 -0.54,-1.7 -0.4,-1.26 -0.81,-2.53 -1.21,-3.79 -1.19,-3.74 -2.39,-7.48 -3.58,-11.22 -1.24,-3.89 -2.48,-7.78 -3.72,-11.66 -0.46,-1.45 -0.93,-2.9 -1.39,-4.35 -0.25,-0.79 -0.41,-1.75 -0.79,-2.48 -0.05,-0.1 -0.07,-0.23 -0.11,-0.33 -4.35,1.4 -8.7,2.8 -13.05,4.2 -7.86,2.53 -15.72,5.06 -23.58,7.6 -2.77,0.89 -5.54,1.78 -8.31,2.68 -0.62,0.2 -1.45,0.32 -2.02,0.65 -0.06,0.03 -0.26,0.04 -0.3,0.1 -0.19,0.28 0.3,1.74 0.37,2.1 0.98,5.4 2.18,10.78 3.64,16.07 1.47,5.33 3.11,10.6 5.01,15.79 0.25,0.69 0.51,1.39 0.77,2.1 z"
         class="st200" />
    </g>
    <g
       transform="matrix(-0.26458333,0,0,0.26458333,236.43959,140.82215)"
       style="stroke:#0044aa"
       id="POLYLINE_1130_">
      <path
         inkscape:connector-curvature="0"
         style="fill:none;stroke:#0044aa;stroke-width:2;stroke-linecap:round;stroke-linejoin:round;stroke-miterlimit:10"
         id="path4057"
         d="m 692.66,197.32 c 6.64,-2.14 13.28,-4.28 19.92,-6.42 0.96,-0.31 1.92,-0.62 2.88,-0.93 0,-0.61 -0.54,-1.53 -0.74,-2.09 -0.47,-1.33 -0.93,-2.65 -1.4,-3.98 -0.5,-1.42 -1,-2.83 -1.51,-4.24 -1.44,-3.96 -2.89,-7.92 -4.37,-11.86 -1.44,-3.84 -2.92,-7.67 -4.4,-11.5 -0.1,-0.26 -0.33,-1.26 -0.57,-1.36 -0.21,-0.09 -1.11,0.36 -1.33,0.43 -2.2,0.71 -4.4,1.42 -6.6,2.12 -4.47,1.44 -8.93,2.88 -13.4,4.32 1.29,3.99 2.59,7.98 3.88,11.98 2.07,6.37 4.13,12.74 6.2,19.12 0.48,1.46 0.96,2.93 1.44,4.41 z"
         class="st200" />
    </g>
    <g
       transform="matrix(-0.26458333,0,0,0.26458333,236.43959,140.82215)"
       style="stroke:#0044aa"
       id="POLYLINE_1129_">
      <path
         inkscape:connector-curvature="0"
         style="fill:none;stroke:#0044aa;stroke-width:2;stroke-linecap:round;stroke-linejoin:round;stroke-miterlimit:10"
         id="path4060"
         d="m 732.53,145.25 c 3.81,-1.23 7.63,-2.46 11.44,-3.69 2.06,-0.66 4.12,-1.33 6.19,-1.99 0.18,-0.06 0.78,-0.36 0.95,-0.28 0.24,0.1 0.61,1.21 0.72,1.42 0.17,0.34 0.34,0.68 0.51,1.02 3.32,6.71 6.34,13.57 9.03,20.55 1.47,3.82 2.81,7.69 4.11,11.58 -0.33,0 -0.78,0.25 -1.08,0.35 -0.88,0.28 -1.76,0.57 -2.64,0.85 -2.59,0.83 -5.17,1.67 -7.76,2.5 -2.23,0.72 -4.46,1.44 -6.69,2.15 -0.2,0.06 -1.15,0.53 -1.36,0.44 -0.32,-0.15 -0.66,-1.93 -0.77,-2.27 -2.33,-7.05 -4.88,-14.02 -7.67,-20.89 -1.59,-3.94 -3.27,-7.85 -4.98,-11.74 z"
         class="st200" />
    </g>
    <g
       transform="matrix(-0.26458333,0,0,0.26458333,236.43959,140.82215)"
       style="stroke:#0044aa"
       id="POLYLINE_1128_">
      <path
         inkscape:connector-curvature="0"
         style="fill:none;stroke:#0044aa;stroke-width:2;stroke-linecap:round;stroke-linejoin:round;stroke-miterlimit:10"
         id="path4063"
         d="m 741.87,181.47 c -3.81,1.23 -7.61,2.45 -11.42,3.68 -2.33,0.75 -4.66,1.5 -6.98,2.25 -0.46,0.15 -1.28,0.61 -1.77,0.57 -0.32,-0.03 -0.2,0.05 -0.36,-0.37 -2.98,-7.79 -5.59,-15.74 -8.48,-23.56 -1.37,-3.71 -2.81,-7.39 -4.21,-11.08 3.79,-1.22 7.58,-2.44 11.38,-3.66 2.24,-0.72 4.47,-1.44 6.71,-2.16 0.24,-0.08 1.17,-0.55 1.43,-0.46 0.33,0.12 0.75,1.59 0.89,1.92 3,6.78 5.85,13.64 8.43,20.6 1.5,4.06 2.96,8.15 4.38,12.27 z"
         class="st200" />
    </g>
    <g
       transform="matrix(-0.26458333,0,0,0.26458333,236.43959,140.82215)"
       style="stroke:#0044aa"
       id="POLYLINE_1127_">
      <line
         style="fill:none;stroke:#0044aa;stroke-width:2;stroke-linecap:round;stroke-linejoin:round;stroke-miterlimit:10"
         id="line4066"
         y2="86.150002"
         x2="742.25"
         y1="102.31"
         x1="692.09998"
         class="st200" />
    </g>
    <g
       transform="matrix(-0.26458333,0,0,0.26458333,236.43959,140.82215)"
       style="stroke:#0044aa"
       id="POLYLINE_1126_">
      <line
         style="fill:none;stroke:#0044aa;stroke-width:2;stroke-linecap:round;stroke-linejoin:round;stroke-miterlimit:10"
         id="line4069"
         y2="104.81"
         x2="684.34003"
         y1="121.15"
         x1="633.60999"
         class="st200" />
    </g>
    <g
       transform="matrix(-0.26458333,0,0,0.26458333,236.43959,140.82215)"
       style="stroke:#0044aa"
       id="POLYLINE_1125_">
      <path
         inkscape:connector-curvature="0"
         style="fill:none;stroke:#0044aa;stroke-width:2;stroke-linecap:round;stroke-linejoin:round;stroke-miterlimit:10"
         id="path4072"
         d="m 679.78,84.89 c 3.39,4.44 6.69,8.95 9.81,13.59 0.85,1.27 1.68,2.54 2.51,3.82"
         class="st200" />
    </g>
    <g
       transform="matrix(-0.26458333,0,0,0.26458333,236.43959,140.82215)"
       style="stroke:#0044aa"
       id="POLYLINE_1124_">
      <path
         inkscape:connector-curvature="0"
         style="fill:none;stroke:#0044aa;stroke-width:2;stroke-linecap:round;stroke-linejoin:round;stroke-miterlimit:10"
         id="path4075"
         d="m 684.34,104.81 c -2.93,-4.55 -5.85,-9.11 -8.83,-13.64 -0.89,-1.35 -1.78,-2.69 -2.66,-4.04"
         class="st200" />
    </g>
    <g
       transform="matrix(-0.26458333,0,0,0.26458333,236.43959,140.82215)"
       style="stroke:#0044aa"
       id="POLYLINE_1123_">
      <line
         style="fill:none;stroke:#0044aa;stroke-width:2;stroke-linecap:round;stroke-linejoin:round;stroke-miterlimit:10"
         id="line4078"
         y2="138.56"
         x2="785.67999"
         y1="134.63"
         x1="798.29999"
         class="st200" />
    </g>
    <g
       transform="matrix(-0.26458333,0,0,0.26458333,236.43959,140.82215)"
       style="stroke:#0044aa"
       id="POLYLINE_1122_">
      <path
         inkscape:connector-curvature="0"
         style="fill:none;stroke:#0044aa;stroke-width:2;stroke-linecap:round;stroke-linejoin:round;stroke-miterlimit:10"
         id="path4081"
         d="m 684.49,285.33 c -1.35,4.23 -2.7,8.45 -4.05,12.68 -3.64,-1.16 -7.28,-2.33 -10.92,-3.49 -0.22,-0.07 -1.33,-0.25 -1.45,-0.46 -0.08,-0.14 0.29,-0.93 0.34,-1.09 0.68,-2.13 1.36,-4.26 2.04,-6.39 0.55,-1.73 1.11,-3.47 1.66,-5.2 4.13,1.31 8.26,2.63 12.38,3.95 z"
         class="st200" />
    </g>
    <g
       transform="matrix(-0.26458333,0,0,0.26458333,236.43959,140.82215)"
       style="stroke:#0044aa"
       id="POLYLINE_1121_">
      <path
         inkscape:connector-curvature="0"
         style="fill:none;stroke:#0044aa;stroke-width:2;stroke-linecap:round;stroke-linejoin:round;stroke-miterlimit:10"
         id="path4084"
         d="m 691.4,263.73 c -1.35,4.23 -2.7,8.45 -4.05,12.68 -0.38,0 -0.92,-0.29 -1.28,-0.41 -1.02,-0.32 -2.03,-0.65 -3.05,-0.97 -2.2,-0.7 -4.4,-1.41 -6.6,-2.11 -0.22,-0.07 -1.33,-0.25 -1.45,-0.46 -0.08,-0.14 0.29,-0.93 0.34,-1.09 0.68,-2.13 1.36,-4.26 2.04,-6.39 0.55,-1.73 1.11,-3.47 1.66,-5.2 4.14,1.31 8.26,2.63 12.39,3.95 z"
         class="st200" />
    </g>
    <g
       transform="matrix(-0.26458333,0,0,0.26458333,236.43959,140.82215)"
       style="stroke:#0044aa"
       id="POLYLINE_1120_">
      <path
         inkscape:connector-curvature="0"
         style="fill:none;stroke:#0044aa;stroke-width:2;stroke-linecap:round;stroke-linejoin:round;stroke-miterlimit:10"
         id="path4087"
         d="m 749.35,282.26 c -0.84,2.62 -1.68,5.24 -2.51,7.86 -1.88,5.86 -3.75,11.73 -5.63,17.59 -1.95,6.11 -3.91,12.23 -5.86,18.34 -0.71,2.21 -1.41,4.41 -2.12,6.62 -0.23,0.73 -0.47,1.46 -0.7,2.2 -0.12,0.37 -0.4,0.9 -0.41,1.29 -0.01,0.37 -0.16,0.11 0.18,0.34 0.31,0.2 0.85,0.27 1.2,0.38 0.66,0.21 1.32,0.42 1.97,0.63 2.78,0.89 5.56,1.78 8.35,2.67 0.2,0.06 0.4,0.13 0.6,0.19 0.84,-2.62 1.68,-5.24 2.51,-7.86 1.88,-5.86 3.75,-11.73 5.63,-17.59 1.95,-6.11 3.91,-12.23 5.86,-18.34 0.71,-2.21 1.41,-4.41 2.12,-6.62 0.23,-0.73 0.47,-1.46 0.7,-2.2 0.12,-0.37 0.4,-0.9 0.41,-1.29 0.01,-0.37 0.16,-0.11 -0.18,-0.34 -0.31,-0.2 -0.85,-0.27 -1.2,-0.38 -0.66,-0.21 -1.32,-0.42 -1.97,-0.63 -2.78,-0.89 -5.56,-1.78 -8.35,-2.67 -0.2,-0.06 -0.4,-0.13 -0.6,-0.19 z"
         class="st200" />
    </g>
    <g
       transform="matrix(-0.26458333,0,0,0.26458333,236.43959,140.82215)"
       style="stroke:#0044aa"
       id="POLYLINE_1119_">
      <line
         style="fill:none;stroke:#0044aa;stroke-width:2;stroke-linecap:round;stroke-linejoin:round;stroke-miterlimit:10"
         id="line4090"
         y2="174.07001"
         x2="814.28003"
         y1="240.28"
         x1="608.76001"
         class="st200" />
    </g>
    <g
       transform="matrix(-0.26458333,0,0,0.26458333,236.43959,140.82215)"
       style="stroke:#0044aa"
       id="POLYLINE_1118_">
      <line
         style="fill:none;stroke:#0044aa;stroke-width:2;stroke-linecap:round;stroke-linejoin:round;stroke-miterlimit:10"
         id="line4093"
         y2="164.75"
         x2="811.28003"
         y1="230.96001"
         x1="605.75"
         class="st200" />
    </g>
    <g
       transform="matrix(-0.26458333,0,0,0.26458333,236.43959,140.82215)"
       style="stroke:#0044aa"
       id="POLYLINE_1117_">
      <path
         inkscape:connector-curvature="0"
         style="fill:none;stroke:#0044aa;stroke-width:2;stroke-linecap:round;stroke-linejoin:round;stroke-miterlimit:10"
         id="path4096"
         d="m 759.86,220.67 c 6.09,-1.96 12.18,-3.92 18.27,-5.89 3.81,-1.23 7.62,-2.45 11.43,-3.68 1,-0.32 2,-0.72 3.02,-0.97 0.29,-0.07 0.29,-0.15 0.44,-0.03 0.13,0.11 0.2,0.61 0.25,0.77 0.16,0.5 0.32,1 0.48,1.5 0.53,1.65 1.06,3.3 1.59,4.95 1.76,5.48 3.53,10.96 5.29,16.44 2.44,7.58 4.88,15.16 7.32,22.73 2.79,8.65 5.57,17.3 8.36,25.95 2.8,8.68 5.59,17.35 8.39,26.03 2.5,7.76 5,15.52 7.5,23.27 1.87,5.79 3.73,11.59 5.6,17.38 0.59,1.84 1.18,3.68 1.78,5.51 0.31,0.95 0.75,1.94 0.94,2.92 0.02,0.12 0.08,0.25 0.12,0.37 -6.09,1.96 -12.18,3.92 -18.27,5.89 -3.81,1.23 -7.62,2.45 -11.43,3.68 -1,0.32 -2,0.72 -3.02,0.97 -0.29,0.07 -0.29,0.15 -0.44,0.03 -0.13,-0.11 -0.2,-0.61 -0.25,-0.77 -0.16,-0.5 -0.32,-1 -0.48,-1.5 -0.53,-1.65 -1.06,-3.3 -1.59,-4.95 -1.76,-5.48 -3.53,-10.96 -5.29,-16.44 -2.44,-7.58 -4.88,-15.16 -7.32,-22.73 -2.79,-8.65 -5.57,-17.3 -8.36,-25.95 -2.8,-8.68 -5.59,-17.35 -8.39,-26.03 -2.5,-7.76 -5,-15.52 -7.5,-23.27 -1.87,-5.79 -3.73,-11.59 -5.6,-17.38 -0.91,-2.81 -1.81,-5.62 -2.72,-8.43 -0.05,-0.13 -0.09,-0.25 -0.12,-0.37 z"
         class="st200" />
    </g>
    <g
       transform="matrix(-0.26458333,0,0,0.26458333,236.43959,140.82215)"
       style="stroke:#0044aa"
       id="POLYLINE_457_">
      <line
         style="fill:none;stroke:#0044aa;stroke-width:2;stroke-linecap:round;stroke-linejoin:round;stroke-miterlimit:10"
         id="line4539"
         y2="479.53"
         x2="637.34998"
         y1="495.57001"
         x1="632.22998"
         class="st200" />
    </g>
    <g
       transform="matrix(-0.26458333,0,0,0.26458333,236.43959,140.82215)"
       style="stroke:#0044aa"
       id="POLYLINE_456_">
      <line
         style="fill:none;stroke:#0044aa;stroke-width:2;stroke-linecap:round;stroke-linejoin:round;stroke-miterlimit:10"
         id="line4542"
         y2="583.85999"
         x2="722.34003"
         y1="583.85999"
         x1="565.19"
         class="st200" />
    </g>
    <g
       transform="matrix(-0.26458333,0,0,0.26458333,236.43959,140.82215)"
       style="stroke:#0044aa"
       id="POLYLINE_455_">
      <path
         inkscape:connector-curvature="0"
         style="fill:none;stroke:#0044aa;stroke-width:2;stroke-linecap:round;stroke-linejoin:round;stroke-miterlimit:10"
         id="path4545"
         d="m 687.59,565.92 c 7.17,0 14.34,0 21.51,0 1.03,0 2.06,0 3.09,0 -3.37,-4.85 -6.73,-9.69 -10.1,-14.54 -1.57,-2.26 -3.04,-4.63 -4.72,-6.8 -0.34,-0.44 -0.39,-0.35 -1,-0.35 -1.54,0 -3.08,0 -4.62,0 -3.3,0 -6.6,0 -9.9,0 2.87,5.14 4.76,10.75 5.45,16.6 0.19,1.69 0.27,3.38 0.29,5.09 z"
         class="st200" />
    </g>
    <g
       transform="matrix(-0.26458333,0,0,0.26458333,236.43959,140.82215)"
       style="stroke:#0044aa"
       id="POLYLINE_454_">
      <line
         style="fill:none;stroke:#0044aa;stroke-width:2;stroke-linecap:round;stroke-linejoin:round;stroke-miterlimit:10"
         id="line4548"
         y2="583.85999"
         x2="859.21997"
         y1="583.85999"
         x1="743.73999"
         class="st200" />
    </g>
    <g
       transform="matrix(-0.26458333,0,0,0.26458333,236.43959,140.82215)"
       style="stroke:#0044aa"
       id="POLYLINE_453_">
      <path
         inkscape:connector-curvature="0"
         style="fill:none;stroke:#0044aa;stroke-width:2;stroke-linecap:round;stroke-linejoin:round;stroke-miterlimit:10"
         id="path4551"
         d="m 681.42,565.92 c -0.07,-7.75 -2.4,-15.32 -6.87,-21.68 -4.45,-6.32 -10.86,-11.2 -18.14,-13.79 -7.25,-2.58 -15.23,-2.88 -22.65,-0.83 -7.45,2.05 -14.17,6.42 -19.07,12.39 -4.9,5.95 -7.88,13.39 -8.46,21.07 -0.07,0.95 -0.1,1.89 -0.11,2.84 2.5,0 5.01,0 7.51,0 5.98,0 11.96,0 17.94,0 7.27,0 14.53,0 21.8,0 6.25,0 12.51,0 18.76,0 3.05,0 6.1,0 9.15,0 0.05,0 0.09,0 0.14,0 z"
         class="st200" />
    </g>
    <g
       transform="matrix(-0.26458333,0,0,0.26458333,236.43959,140.82215)"
       style="stroke:#0044aa"
       id="POLYLINE_452_">
      <path
         inkscape:connector-curvature="0"
         style="fill:none;stroke:#0044aa;stroke-width:2;stroke-linecap:round;stroke-linejoin:round;stroke-miterlimit:10"
         id="path4554"
         d="m 839.14,565.92 c -0.07,-7.75 -2.4,-15.32 -6.87,-21.68 -4.45,-6.32 -10.86,-11.2 -18.14,-13.79 -7.25,-2.58 -15.23,-2.88 -22.65,-0.83 -7.45,2.05 -14.17,6.42 -19.07,12.39 -4.9,5.95 -7.88,13.39 -8.46,21.07 -0.07,0.95 -0.1,1.89 -0.11,2.84 2.5,0 5.01,0 7.51,0 5.98,0 11.96,0 17.94,0 7.27,0 14.53,0 21.8,0 6.25,0 12.51,0 18.76,0 3.05,0 6.1,0 9.15,0 0.05,0 0.09,0 0.14,0 z"
         class="st200" />
    </g>
    <g
       transform="matrix(-0.26458333,0,0,0.26458333,236.43959,140.82215)"
       style="stroke:#0044aa"
       id="POLYLINE_451_">
      <path
         inkscape:connector-curvature="0"
         style="fill:none;stroke:#0044aa;stroke-width:2;stroke-linecap:round;stroke-linejoin:round;stroke-miterlimit:10"
         id="path4557"
         d="m 683.41,524.48 c -0.87,-1.25 -1.7,-2.53 -2.61,-3.75 -0.31,-0.42 -0.2,-0.32 -0.64,-0.37 -1.39,-0.14 -2.86,0 -4.26,0 -6.21,0 -12.42,0 -18.63,0 -8.05,0 -16.11,0 -24.16,0 -6.59,0 -13.17,0 -19.76,0 -1.78,0 -3.56,0 -5.34,0 -0.24,0 -0.75,-0.1 -0.98,0 -0.14,0.07 -0.24,0.28 -0.34,0.42 -0.53,0.76 -1.06,1.52 -1.58,2.28 -0.33,0.47 -0.66,0.95 -0.99,1.42 2.62,0 5.24,0 7.87,0 6.3,0 12.6,0 18.9,0 7.66,0 15.32,0 22.98,0 6.59,0 13.19,0 19.78,0 3.21,0 6.42,0 9.63,0 0.04,0 0.08,0 0.13,0 z"
         class="st200" />
    </g>
    <g
       transform="matrix(-0.26458333,0,0,0.26458333,236.43959,140.82215)"
       style="stroke:#0044aa"
       id="POLYLINE_448_">
      <path
         inkscape:connector-curvature="0"
         style="fill:none;stroke:#0044aa;stroke-width:2;stroke-linecap:round;stroke-linejoin:round;stroke-miterlimit:10"
         id="path4560"
         d="m 824.82,524.48 c -0.48,-0.69 -0.95,-1.37 -1.43,-2.06 -0.31,-0.45 -0.63,-0.9 -0.94,-1.35 -0.11,-0.16 -0.31,-0.62 -0.49,-0.71 -0.36,-0.17 -1.25,0 -1.63,0 -3.56,0 -7.12,0 -10.68,0 -8.73,0 -17.46,0 -26.18,0 -0.56,0 -1.11,0 -1.67,0 -0.18,0 -0.6,-0.08 -0.77,0 -0.43,0.21 -0.9,1.26 -1.18,1.66 -0.57,0.82 -1.14,1.64 -1.71,2.46 5.26,0 10.52,0 15.78,0 8.38,0 16.76,0 25.14,0 1.93,0 3.85,0 5.76,0 z"
         class="st200" />
    </g>
    <g
       style="stroke:#0044aa"
       id="POLYLINE_4902_"
       transform="matrix(-0.26458333,0,0,0.26458333,236.43959,140.82215)">
      <line
         style="fill:none;stroke:#0044aa;stroke-width:2.75;stroke-linecap:round;stroke-linejoin:round;stroke-miterlimit:10"
         id="line4564"
         y2="499.32001"
         x2="782.44"
         y1="512.82001"
         x1="783.90997"
         class="st203" />
    </g>
    <g
       style="stroke:#0044aa"
       id="POLYLINE_4901_"
       transform="matrix(-0.26458333,0,0,0.26458333,236.43959,140.82215)">
      <line
         style="fill:none;stroke:#0044aa;stroke-width:2.75;stroke-linecap:round;stroke-linejoin:round;stroke-miterlimit:10"
         id="line4567"
         y2="496.13"
         x2="821.15002"
         y1="512.82001"
         x1="818.53998"
         class="st203" />
    </g>
    <g
       style="stroke:#0044aa"
       id="POLYLINE_4900_"
       transform="matrix(-0.26458333,0,0,0.26458333,236.43959,140.82215)">
      <path
         style="fill:none;stroke:#0044aa;stroke-width:2.75;stroke-linecap:round;stroke-linejoin:round;stroke-miterlimit:10"
         inkscape:connector-curvature="0"
         id="path4570"
         d="m 764.38,487.45 c -3.5,1.13 -5.91,4.52 -5.83,8.19 0.07,3.6 2.53,6.84 5.98,7.88 1.63,0.49 3.39,0.47 5.01,-0.05"
         class="st203" />
    </g>
    <g
       style="stroke:#0044aa"
       id="POLYLINE_4899_"
       transform="matrix(-0.26458333,0,0,0.26458333,236.43959,140.82215)">
      <path
         style="fill:none;stroke:#0044aa;stroke-width:2.75;stroke-linecap:round;stroke-linejoin:round;stroke-miterlimit:10"
         inkscape:connector-curvature="0"
         id="path4573"
         d="m 834.12,464.99 c 3.39,-1.09 7.2,0.12 9.34,2.99 1.89,2.55 2.18,6.04 0.73,8.86 -1.01,1.97 -2.8,3.49 -4.91,4.17"
         class="st203" />
    </g>
    <g
       style="stroke:#0044aa"
       id="POLYLINE_4898_"
       transform="matrix(-0.26458333,0,0,0.26458333,236.43959,140.82215)">
      <path
         style="fill:none;stroke:#0044aa;stroke-width:2.75;stroke-linecap:round;stroke-linejoin:round;stroke-miterlimit:10"
         inkscape:connector-curvature="0"
         id="path4576"
         d="m 788.02,479.84 c -6.91,2.23 -13.82,4.45 -20.73,6.68 -0.97,0.31 -1.94,0.63 -2.91,0.94 1.72,5.34 3.44,10.68 5.16,16.02 7.77,-2.5 15.55,-5.01 23.32,-7.51 5.38,-1.73 10.76,-3.46 16.13,-5.2 9.3,-3 18.6,-5.99 27.89,-8.99 0.57,-0.18 1.13,-0.37 1.7,-0.55 0.1,-0.03 0.63,-0.12 0.69,-0.22 0.07,-0.13 -0.26,-0.84 -0.31,-0.97 -0.3,-0.93 -0.6,-1.87 -0.9,-2.8 -0.83,-2.58 -1.66,-5.15 -2.49,-7.73 -0.34,-1.05 -0.67,-2.09 -1.01,-3.14 -0.07,-0.21 -0.24,-1.26 -0.44,-1.37 -0.09,-0.06 -0.58,0.17 -0.69,0.21 -0.7,0.23 -1.4,0.45 -2.1,0.68 -2.29,0.74 -4.58,1.48 -6.87,2.21 -4.39,1.41 -8.78,2.83 -13.17,4.24 -0.28,0.09 -0.55,0.18 -0.83,0.27"
         class="st203" />
    </g>
    <g
       style="stroke:#0044aa"
       id="POLYLINE_4897_"
       transform="matrix(-0.26458333,0,0,0.26458333,236.43959,140.82215)">
      <path
         style="fill:none;stroke:#0044aa;stroke-width:2.75;stroke-linecap:round;stroke-linejoin:round;stroke-miterlimit:10"
         inkscape:connector-curvature="0"
         id="path4579"
         d="m 782.44,499.32 c 1.01,2.66 3.78,4.09 6.36,4.82 3.99,1.13 8.31,0.99 12.37,0.38 3.95,-0.6 7.83,-1.73 11.49,-3.33 3.65,-1.59 7.21,-3.68 10.07,-6.48 2.1,-2.06 4.22,-4.92 3.97,-8.04 -0.04,-0.52 -0.15,-1.02 -0.33,-1.51"
         class="st203" />
    </g>
    <g
       style="stroke:#0044aa"
       id="POLYLINE_4896_"
       transform="matrix(-0.26458333,0,0,0.26458333,236.43959,140.82215)">
      <path
         style="fill:none;stroke:#0044aa;stroke-width:2.75;stroke-linecap:round;stroke-linejoin:round;stroke-miterlimit:10"
         inkscape:connector-curvature="0"
         id="path4582"
         d="m 876.57,419.76 c -1.66,7.55 -3.32,15.09 -4.99,22.64 -0.79,3.57 -1.57,7.13 -2.36,10.7 -0.1,0.47 -0.05,0.5 -0.38,0.7 -0.53,0.33 -1.37,0.44 -1.97,0.63 -7.31,2.36 -14.63,4.71 -21.94,7.07 -9.82,3.16 -19.63,6.32 -29.45,9.49 -5.65,1.82 -11.29,3.64 -16.94,5.46 -3.81,1.23 -7.63,2.46 -11.44,3.69 -9.42,3.04 -18.85,6.07 -28.27,9.11 -8.51,2.74 -17.02,5.48 -25.52,8.22 -1.22,0.39 -2.43,0.78 -3.65,1.17 -0.56,0.18 -1.33,0.6 -1.92,0.62 -0.37,0.01 -0.39,-0.09 -0.74,-0.4 -1.06,-0.95 -2.11,-1.89 -3.17,-2.84 -6.88,-6.17 -13.76,-12.34 -20.64,-18.5 -0.52,-0.47 -1.04,-0.93 -1.56,-1.4"
         class="st203" />
    </g>
    <g
       style="stroke:#0044aa"
       id="POLYLINE_4895_"
       transform="matrix(-0.26458333,0,0,0.26458333,236.43959,140.82215)">
      <path
         style="fill:none;stroke:#0044aa;stroke-width:2.75;stroke-linecap:round;stroke-linejoin:round;stroke-miterlimit:10"
         inkscape:connector-curvature="0"
         id="path4585"
         d="m 799.1,588.43 c 3.75,0 7.5,0 11.24,0 7.74,0 15.47,0 23.21,0 6.46,0 12.93,0 19.39,0 0.81,0 1.62,0 2.43,0 0.2,0 0.72,0.1 0.9,0 0.12,-0.06 0.24,-0.37 0.31,-0.48 0.32,-0.51 0.65,-1.01 0.97,-1.52 0.98,-1.53 1.97,-3.06 2.95,-4.59 1.01,-1.57 2.02,-3.14 3.03,-4.71 0.23,-0.37 1.21,-1.42 1.2,-1.88 0,-0.15 -0.33,-0.48 -0.42,-0.6 -0.36,-0.51 -0.71,-1.03 -1.07,-1.54 -3.09,-4.45 -6.18,-8.9 -9.27,-13.34 -4.48,-6.44 -8.95,-12.89 -13.43,-19.33 -4.17,-6.01 -8.34,-12.01 -12.51,-18.02 -1.44,-2.08 -2.88,-4.15 -4.33,-6.23 -0.67,-0.97 -1.32,-2.35 -2.19,-3.16 -0.25,-0.23 -0.08,-0.15 -0.46,-0.21 -1.1,-0.18 -2.39,0 -3.5,0 -3.82,0 -7.64,0 -11.46,0 -4.91,0 -9.82,0 -14.73,0 -3.11,0 -6.23,-0.1 -9.34,0 -0.73,0.02 -0.88,0.62 -1.3,1.22 -2.78,4.01 -5.56,8.01 -8.35,12.02 -4.39,6.32 -8.78,12.64 -13.17,18.96 -4.32,6.22 -8.65,12.45 -12.97,18.67 -2.52,3.63 -5.04,7.26 -7.56,10.89 -0.09,0.13 -0.45,0.49 -0.46,0.66 -0.02,0.4 0.83,1.33 1.04,1.65 1.99,3.1 3.98,6.19 5.96,9.29 0.34,0.53 0.68,1.06 1.02,1.59 0.09,0.14 0.27,0.58 0.42,0.66 0.18,0.1 0.67,0 0.87,0 2.08,0 4.15,0 6.23,0 7.43,0 14.87,0 22.3,0 6.62,0 13.23,0 19.85,0 1.08,0 2.14,0 3.2,0 z"
         class="st203" />
    </g>
    <g
       style="stroke:#0044aa"
       id="POLYLINE_4894_"
       transform="matrix(-0.26458333,0,0,0.26458333,236.43959,140.82215)">
      <line
         style="fill:none;stroke:#0044aa;stroke-width:2.75;stroke-linecap:round;stroke-linejoin:round;stroke-miterlimit:10"
         id="line4588"
         y2="575.26001"
         x2="864.73999"
         y1="575.26001"
         x1="738.21997"
         class="st203" />
    </g>
    <g
       style="stroke:#0044aa"
       id="POLYLINE_4893_"
       transform="matrix(-0.26458333,0,0,0.26458333,236.43959,140.82215)">
      <line
         style="fill:none;stroke:#0044aa;stroke-width:2.75;stroke-linecap:round;stroke-linejoin:round;stroke-miterlimit:10"
         id="line4591"
         y2="413.04999"
         x2="695.64001"
         y1="408.89999"
         x1="682.65997"
         class="st203" />
    </g>
    <g
       style="stroke:#0044aa"
       id="POLYLINE_4892_"
       transform="matrix(-0.26458333,0,0,0.26458333,236.43959,140.82215)">
      <path
         style="fill:none;stroke:#0044aa;stroke-width:2.75;stroke-linecap:round;stroke-linejoin:round;stroke-miterlimit:10"
         inkscape:connector-curvature="0"
         id="path4594"
         d="m 685.2,320.29 c 5.68,1.82 11.37,3.64 17.05,5.45 4.09,1.31 8.18,2.62 12.27,3.92 1.48,0.47 2.97,0.95 4.45,1.42 0.63,0.2 1.73,0.81 2.41,0.77 0.33,-0.02 0.06,0.14 0.29,-0.2 0.45,-0.68 0.6,-1.86 0.84,-2.63 0.57,-1.78 1.14,-3.56 1.71,-5.34 -5.68,-1.82 -11.37,-3.64 -17.05,-5.45 -4.09,-1.31 -8.18,-2.62 -12.27,-3.92 -1.48,-0.47 -2.97,-0.95 -4.45,-1.42 -0.63,-0.2 -1.73,-0.81 -2.41,-0.77 -0.33,0.02 -0.06,-0.14 -0.29,0.2 -0.45,0.68 -0.6,1.86 -0.84,2.63 -0.58,1.79 -1.15,3.57 -1.71,5.34 z"
         class="st203" />
    </g>
    <g
       style="stroke:#0044aa"
       id="POLYLINE_4891_"
       transform="matrix(-0.26458333,0,0,0.26458333,236.43959,140.82215)">
      <line
         style="fill:none;stroke:#0044aa;stroke-width:2.75;stroke-linecap:round;stroke-linejoin:round;stroke-miterlimit:10"
         id="line4597"
         y2="355.73999"
         x2="699.26001"
         y1="360.20999"
         x1="697.83002"
         class="st203" />
    </g>
    <g
       style="stroke:#0044aa"
       id="POLYLINE_4890_"
       transform="matrix(-0.26458333,0,0,0.26458333,236.43959,140.82215)">
      <path
         style="fill:none;stroke:#0044aa;stroke-width:2.75;stroke-linecap:round;stroke-linejoin:round;stroke-miterlimit:10"
         inkscape:connector-curvature="0"
         id="path4600"
         d="m 701.39,356.42 c -4.21,-1.35 -8.42,-2.69 -12.63,-4.04 -0.2,-0.06 -1.23,-0.24 -1.33,-0.43 -0.11,-0.2 0.41,-1.28 0.48,-1.49 0.8,-2.5 1.6,-5.01 2.4,-7.51 0.62,-1.93 1.24,-3.87 1.86,-5.8 4.21,1.35 8.42,2.69 12.63,4.04 0.2,0.06 1.23,0.23 1.33,0.43 0.11,0.2 -0.41,1.28 -0.48,1.49 -0.8,2.5 -1.6,5.01 -2.4,7.51 -0.62,1.93 -1.24,3.86 -1.86,5.8 z"
         class="st203" />
    </g>
    <g
       style="stroke:#0044aa"
       id="POLYLINE_4889_"
       transform="matrix(-0.26458333,0,0,0.26458333,236.43959,140.82215)">
      <path
         style="fill:none;stroke:#0044aa;stroke-width:2.75;stroke-linecap:round;stroke-linejoin:round;stroke-miterlimit:10"
         inkscape:connector-curvature="0"
         id="path4603"
         d="m 697.23,369.43 c -3.22,-1.03 -6.45,-2.06 -9.67,-3.09 -0.9,-0.29 -1.81,-0.58 -2.71,-0.87 -0.32,-0.1 -1.22,-0.21 -1.46,-0.47 -0.34,-0.37 0.77,-2.82 0.95,-3.37 0.55,-1.73 1.11,-3.47 1.66,-5.2 0.29,0 0.68,0.22 0.95,0.3 0.8,0.25 1.59,0.51 2.39,0.76 2.11,0.68 4.22,1.35 6.33,2.03 0.9,0.29 1.81,0.58 2.71,0.87 0.32,0.1 1.22,0.21 1.46,0.47 0.34,0.37 -0.77,2.82 -0.95,3.37 -0.36,1.14 -0.73,2.28 -1.09,3.42 -0.04,0.13 -0.48,1.78 -0.57,1.78 z"
         class="st203" />
    </g>
    <g
       style="stroke:#0044aa"
       id="POLYLINE_4888_"
       transform="matrix(-0.26458333,0,0,0.26458333,236.43959,140.82215)">
      <path
         style="fill:none;stroke:#0044aa;stroke-width:2.75;stroke-linecap:round;stroke-linejoin:round;stroke-miterlimit:10"
         inkscape:connector-curvature="0"
         id="path4606"
         d="m 673.43,437.76 c -2.87,-0.92 -5.75,-1.84 -8.62,-2.76 -0.33,-0.1 -1.68,-0.34 -1.79,-0.64 -0.06,-0.17 0.25,-0.79 0.31,-0.96 1.45,-4.55 2.91,-9.1 4.36,-13.64 2.35,-7.36 4.71,-14.71 7.06,-22.07 2.26,-7.07 4.52,-14.15 6.79,-21.22 0.78,-2.42 1.55,-4.85 2.33,-7.27 0.25,-0.77 0.49,-1.53 0.74,-2.3 0.09,-0.28 0.18,-1 0.39,-1.22 0.03,-0.03 0.04,-0.11 0.05,-0.15 3.48,1.11 6.96,2.22 10.43,3.34 -0.1,0 -0.55,1.73 -0.59,1.84 -0.53,1.67 -1.07,3.34 -1.6,5.01 -1.75,5.48 -3.51,10.97 -5.26,16.45 -2.12,6.64 -4.24,13.27 -6.37,19.91 -1.83,5.74 -3.67,11.47 -5.5,17.21 -0.89,2.79 -1.78,5.57 -2.67,8.36 -0.03,0.03 -0.06,0.08 -0.06,0.11 z"
         class="st203" />
    </g>
    <g
       style="stroke:#0044aa"
       id="POLYLINE_4887_"
       transform="matrix(-0.26458333,0,0,0.26458333,236.43959,140.82215)">
      <line
         style="fill:none;stroke:#0044aa;stroke-width:2.75;stroke-linecap:round;stroke-linejoin:round;stroke-miterlimit:10"
         id="line4609"
         y2="352.63"
         x2="689.56"
         y1="357.10999"
         x1="688.13"
         class="st203" />
    </g>
    <g
       style="stroke:#0044aa"
       id="POLYLINE_4886_"
       transform="matrix(-0.26458333,0,0,0.26458333,236.43959,140.82215)">
      <line
         style="fill:none;stroke:#0044aa;stroke-width:2.75;stroke-linecap:round;stroke-linejoin:round;stroke-miterlimit:10"
         id="line4612"
         y2="401.41"
         x2="659.26001"
         y1="405.56"
         x1="672.22998"
         class="st203" />
    </g>
    <g
       style="stroke:#0044aa"
       id="POLYLINE_4885_"
       transform="matrix(-0.26458333,0,0,0.26458333,236.43959,140.82215)">
      <path
         style="fill:none;stroke:#0044aa;stroke-width:2.75;stroke-linecap:round;stroke-linejoin:round;stroke-miterlimit:10"
         inkscape:connector-curvature="0"
         id="path4615"
         d="m 608.78,475.99 c 0,-1.27 -0.02,-2.53 0,-3.8 0.01,-0.77 0.2,-1.48 0.86,-1.95 0.63,-0.45 1.37,-0.38 2.11,-0.38 1.58,0 3.17,0 4.75,0 1.18,0 2.35,0 3.53,0"
         class="st203" />
    </g>
    <g
       style="stroke:#0044aa"
       id="POLYLINE_4884_"
       transform="matrix(-0.26458333,0,0,0.26458333,236.43959,140.82215)">
      <line
         style="fill:none;stroke:#0044aa;stroke-width:2.75;stroke-linecap:round;stroke-linejoin:round;stroke-miterlimit:10"
         id="line4618"
         y2="486.64001"
         x2="608.78003"
         y1="512.82001"
         x1="608.78003"
         class="st203" />
    </g>
    <g
       style="stroke:#0044aa"
       id="POLYLINE_4883_"
       transform="matrix(-0.26458333,0,0,0.26458333,236.43959,140.82215)">
      <path
         style="fill:none;stroke:#0044aa;stroke-width:2.75;stroke-linecap:round;stroke-linejoin:round;stroke-miterlimit:10"
         inkscape:connector-curvature="0"
         id="path4621"
         d="m 664.77,512.82 c 3.3,-0.62 6.6,-1.78 9.27,-3.88"
         class="st203" />
    </g>
    <g
       style="stroke:#0044aa"
       id="POLYLINE_4882_"
       transform="matrix(-0.26458333,0,0,0.26458333,236.43959,140.82215)">
      <path
         style="fill:none;stroke:#0044aa;stroke-width:2.75;stroke-linecap:round;stroke-linejoin:round;stroke-miterlimit:10"
         inkscape:connector-curvature="0"
         id="path4624"
         d="m 680.7,493.4 c 0.59,-5.36 -0.19,-10.78 -2.39,-15.71 -2.19,-4.92 -5.72,-9.2 -10.13,-12.29 -4.39,-3.08 -9.61,-4.95 -14.96,-5.34 -5.35,-0.39 -10.79,0.67 -15.59,3.08 -4.8,2.41 -8.92,6.11 -11.81,10.63 -0.37,0.57 -0.71,1.16 -1.04,1.75"
         class="st203" />
    </g>
    <g
       style="stroke:#0044aa"
       id="POLYLINE_4881_"
       transform="matrix(-0.26458333,0,0,0.26458333,236.43959,140.82215)">
      <path
         style="fill:none;stroke:#0044aa;stroke-width:2.75;stroke-linecap:round;stroke-linejoin:round;stroke-miterlimit:10"
         inkscape:connector-curvature="0"
         id="path4627"
         d="m 641.52,480.87 c -6.92,-2.21 -13.83,-4.42 -20.75,-6.64 -0.97,-0.31 -1.94,-0.62 -2.91,-0.93 -0.9,2.83 -1.81,5.66 -2.71,8.49 -0.59,1.85 -1.18,3.7 -1.77,5.55 -0.1,0.32 -0.77,1.72 -0.6,2.01 0.16,0.26 1.5,0.48 1.78,0.57 1.32,0.42 2.64,0.84 3.96,1.27 3.89,1.24 7.78,2.49 11.67,3.73 5.8,1.86 11.6,3.71 17.41,5.57 5.13,1.64 10.27,3.28 15.4,4.92 4,1.28 8,2.56 12,3.84 1.52,0.49 3.04,0.97 4.55,1.46 0.85,0.27 1.75,0.68 2.62,0.84 0.12,0.02 0.24,0.08 0.36,0.12 0.81,-2.55 1.63,-5.09 2.44,-7.64 0.58,-1.8 1.15,-3.61 1.73,-5.41 0.2,-0.64 0.41,-1.28 0.61,-1.91 0.06,-0.17 0.39,-0.83 0.32,-1.01 -0.09,-0.22 -0.96,-0.37 -1.23,-0.46 -1.34,-0.43 -2.67,-0.85 -4.01,-1.28 -3.71,-1.19 -7.41,-2.37 -11.12,-3.56 -2.43,-0.78 -4.86,-1.55 -7.29,-2.33"
         class="st203" />
    </g>
    <g
       style="stroke:#0044aa"
       id="POLYLINE_4880_"
       transform="matrix(-0.26458333,0,0,0.26458333,236.43959,140.82215)">
      <path
         style="fill:none;stroke:#0044aa;stroke-width:2.75;stroke-linecap:round;stroke-linejoin:round;stroke-miterlimit:10"
         inkscape:connector-curvature="0"
         id="path4630"
         d="m 663.98,488.05 c 4.87,1.56 9.73,3.11 14.6,4.67 1.02,0.33 2.04,0.65 3.05,0.98 0.25,0.08 0.5,0.24 0.66,0.11 0.18,-0.14 0.28,-0.88 0.35,-1.09 0.23,-0.71 0.46,-1.43 0.68,-2.14 1.68,-5.25 3.36,-10.5 5.04,-15.75 2,-6.24 3.99,-12.49 5.99,-18.73 0.74,-2.31 1.48,-4.62 2.21,-6.92 0.24,-0.75 0.48,-1.5 0.72,-2.25 0.09,-0.29 0.43,-0.91 0.39,-1.22 -0.01,-0.04 0.04,-0.12 0.05,-0.17 -0.49,0 -1.16,-0.37 -1.62,-0.52 -1.43,-0.46 -2.85,-0.91 -4.28,-1.37 -4.72,-1.51 -9.43,-3.02 -14.15,-4.53 -10.57,-3.38 -21.14,-6.76 -31.7,-10.14 -2.42,-0.78 -4.85,-1.55 -7.27,-2.33 -1.75,5.47 -3.5,10.94 -5.25,16.41 -2.77,8.65 -5.53,17.3 -8.3,25.94 -0.64,2.01 -1.28,4.01 -1.92,6.02 5.32,1.7 10.65,3.41 15.97,5.11 0.77,0.25 1.54,0.49 2.31,0.74"
         class="st203" />
    </g>
    <g
       style="stroke:#0044aa"
       id="POLYLINE_4879_"
       transform="matrix(-0.26458333,0,0,0.26458333,236.43959,140.82215)">
      <path
         style="fill:none;stroke:#0044aa;stroke-width:2.75;stroke-linecap:round;stroke-linejoin:round;stroke-miterlimit:10"
         inkscape:connector-curvature="0"
         id="path4633"
         d="m 662.25,493.46 c -6.56,-2.1 -13.12,-4.19 -19.67,-6.29 -0.93,-0.3 -1.86,-0.6 -2.79,-0.89 1.96,-6.12 3.91,-12.23 5.87,-18.35 0.1,-0.31 0.28,-1.39 0.56,-1.48 0.16,-0.05 0.72,0.23 0.88,0.28 0.59,0.19 1.18,0.38 1.77,0.57 3.78,1.21 7.56,2.42 11.33,3.62 2.8,0.9 5.6,1.79 8.4,2.69 -1.85,5.78 -3.69,11.55 -5.54,17.33 -0.27,0.84 -0.54,1.68 -0.81,2.52 z"
         class="st203" />
    </g>
    <g
       style="stroke:#0044aa"
       id="POLYLINE_4878_"
       transform="matrix(-0.26458333,0,0,0.26458333,236.43959,140.82215)">
      <path
         style="fill:none;stroke:#0044aa;stroke-width:2.75;stroke-linecap:round;stroke-linejoin:round;stroke-miterlimit:10"
         inkscape:connector-curvature="0"
         id="path4636"
         d="m 630.73,451.58 c -0.83,-0.27 -1.66,-0.53 -2.49,-0.8 -0.3,-0.09 -1.67,-0.75 -1.93,-0.6 -0.14,0.08 -0.26,0.81 -0.31,0.95 -0.24,0.75 -0.48,1.49 -0.72,2.24 -1.4,4.38 -2.8,8.76 -4.2,13.14 -0.37,1.17 -0.75,2.33 -1.12,3.5 1.47,0.47 2.94,0.94 4.41,1.41"
         class="st203" />
    </g>
    <g
       style="stroke:#0044aa"
       id="POLYLINE_4877_"
       transform="matrix(-0.26458333,0,0,0.26458333,236.43959,140.82215)">
      <path
         style="fill:none;stroke:#0044aa;stroke-width:2.75;stroke-linecap:round;stroke-linejoin:round;stroke-miterlimit:10"
         inkscape:connector-curvature="0"
         id="path4639"
         d="m 683.41,490.31 c 0.83,0.27 1.66,0.53 2.49,0.8 0.3,0.09 1.67,0.75 1.93,0.6 0.14,-0.08 0.26,-0.81 0.31,-0.95 0.24,-0.75 0.48,-1.49 0.72,-2.24 1.4,-4.38 2.8,-8.76 4.2,-13.14 0.37,-1.17 0.75,-2.33 1.12,-3.5 -1.47,-0.47 -2.94,-0.94 -4.41,-1.41"
         class="st203" />
    </g>
    <g
       style="stroke:#0044aa"
       id="POLYLINE_4876_"
       transform="matrix(-0.26458333,0,0,0.26458333,236.43959,140.82215)">
      <path
         style="fill:none;stroke:#0044aa;stroke-width:2.75;stroke-linecap:round;stroke-linejoin:round;stroke-miterlimit:10"
         inkscape:connector-curvature="0"
         id="path4642"
         d="m 687.65,495.62 c 3.5,1.12 5.92,4.5 5.85,8.17 -0.07,3.6 -2.52,6.85 -5.97,7.9 -1.63,0.49 -3.39,0.48 -5.01,-0.04"
         class="st203" />
    </g>
    <g
       style="stroke:#0044aa"
       id="POLYLINE_4875_"
       transform="matrix(-0.26458333,0,0,0.26458333,236.43959,140.82215)">
      <path
         style="fill:none;stroke:#0044aa;stroke-width:2.75;stroke-linecap:round;stroke-linejoin:round;stroke-miterlimit:10"
         inkscape:connector-curvature="0"
         id="path4645"
         d="m 617.85,473.3 c -3.39,-1.08 -7.2,0.14 -9.33,3.01 -1.89,2.55 -2.17,6.04 -0.72,8.86 1.01,1.97 2.81,3.49 4.92,4.16"
         class="st203" />
    </g>
    <g
       style="stroke:#0044aa"
       id="POLYLINE_4874_"
       transform="matrix(-0.26458333,0,0,0.26458333,236.43959,140.82215)">
      <line
         style="fill:none;stroke:#0044aa;stroke-width:2.75;stroke-linecap:round;stroke-linejoin:round;stroke-miterlimit:10"
         id="line4648"
         y2="575.26001"
         x2="727.87"
         y1="575.26001"
         x1="559.66998"
         class="st203" />
    </g>
    <g
       style="stroke:#0044aa"
       id="POLYLINE_4873_"
       transform="matrix(-0.26458333,0,0,0.26458333,236.43959,140.82215)">
      <path
         style="fill:none;stroke:#0044aa;stroke-width:2.75;stroke-linecap:round;stroke-linejoin:round;stroke-miterlimit:10"
         inkscape:connector-curvature="0"
         id="path4651"
         d="m 643.77,588.43 c 4.5,0 9.01,0 13.51,0 9.53,0 19.07,0 28.6,0 8.71,0 17.41,0 26.12,0 2.21,0 4.42,0 6.63,0 0.25,0 0.62,0.07 0.82,-0.06 0.32,-0.2 0.64,-0.99 0.84,-1.3 0.56,-0.87 1.12,-1.74 1.68,-2.61 1.31,-2.04 2.62,-4.08 3.93,-6.13 0.48,-0.75 0.96,-1.5 1.44,-2.25 0.1,-0.16 0.54,-0.63 0.53,-0.83 -0.01,-0.21 -0.46,-0.67 -0.58,-0.83 -0.52,-0.76 -1.05,-1.51 -1.57,-2.27 -4.43,-6.38 -8.86,-12.75 -13.29,-19.13 -5.62,-8.1 -11.25,-16.19 -16.87,-24.29 -3.52,-5.07 -7.04,-10.14 -10.56,-15.21 -0.11,-0.16 -0.32,-0.62 -0.5,-0.71 -0.4,-0.21 -1.46,0 -1.9,0 -3.8,0 -7.6,0 -11.4,0 -8.59,0 -17.18,0 -25.78,0 -4.92,0 -9.84,0 -14.76,0 -8.64,0 -17.28,0 -25.92,0 -0.38,0 -1.33,-0.19 -1.69,0 -0.21,0.11 -0.45,0.64 -0.58,0.83 -1.33,1.91 -2.66,3.83 -3.99,5.74 -5.04,7.26 -10.08,14.52 -15.12,21.78 -5.39,7.77 -10.79,15.53 -16.18,23.3 -1.82,2.63 -3.65,5.25 -5.47,7.88 -0.51,0.73 -1.02,1.47 -1.53,2.2 -0.11,0.15 -0.49,0.54 -0.49,0.72 0,0.27 0.56,0.88 0.7,1.09 0.52,0.8 1.03,1.61 1.55,2.41 1.31,2.05 2.63,4.1 3.94,6.14 0.52,0.8 1.03,1.61 1.55,2.41 0.16,0.25 0.44,0.94 0.7,1.09 0.19,0.1 0.69,0.01 0.9,0.01 6.22,0 12.44,0 18.65,0 9.9,0 19.8,0 29.69,0 7.63,0 15.25,0 22.88,0 1.17,0.02 2.34,0.02 3.52,0.02 z"
         class="st203" />
    </g>
    <g
       style="stroke:#0044aa"
       id="POLYLINE_4872_"
       transform="matrix(-0.26458333,0,0,0.26458333,236.43959,140.82215)">
      <path
         style="fill:none;stroke:#0044aa;stroke-width:2.75;stroke-linecap:round;stroke-linejoin:round;stroke-miterlimit:10"
         inkscape:connector-curvature="0"
         id="path4654"
         d="m 845.74,411.82 c -1.26,-3.92 -2.52,-7.84 -3.79,-11.76 -0.32,-0.98 -0.35,-2.01 -1.26,-2.53 -1.96,-1.13 -3.92,-2.25 -5.89,-3.38 -1.77,-1.02 -3.56,-2.31 -5.44,-3.12 -0.88,-0.38 -2.35,0.49 -3.24,0.77 -2.46,0.79 -4.92,1.59 -7.38,2.38 -0.67,0.21 -1.58,0.34 -2.19,0.7 -0.28,0.17 -0.28,0.25 -0.44,0.59 -0.94,2.07 -1.88,4.15 -2.83,6.22 -0.85,1.87 -1.95,3.76 -2.59,5.71 -0.29,0.88 0.43,2.11 0.71,2.98 0.81,2.51 1.62,5.01 2.42,7.52 0.3,0.94 0.6,1.87 0.9,2.81 0.09,0.28 0.15,0.77 0.35,1 0.32,0.38 1.14,0.65 1.56,0.9 1.01,0.58 2.03,1.17 3.04,1.75 2.13,1.22 4.27,2.45 6.4,3.67 0.29,0.16 0.8,0.62 1.14,0.65 0.38,0.04 1.07,-0.34 1.42,-0.46 2.39,-0.77 4.77,-1.54 7.16,-2.31 1.02,-0.33 2.04,-0.66 3.07,-0.99 0.29,-0.09 0.86,-0.16 1.08,-0.37 0.34,-0.33 0.55,-1.22 0.74,-1.64 0.47,-1.04 0.94,-2.07 1.41,-3.11 1.03,-2.27 2.06,-4.54 3.09,-6.81 0.19,-0.38 0.38,-0.77 0.56,-1.17 z"
         class="st203" />
    </g>
    <g
       style="stroke:#0044aa"
       id="POLYLINE_4871_"
       transform="matrix(-0.26458333,0,0,0.26458333,236.43959,140.82215)">
      <path
         style="fill:none;stroke:#0044aa;stroke-width:2.75;stroke-linecap:round;stroke-linejoin:round;stroke-miterlimit:10"
         inkscape:connector-curvature="0"
         id="path4657"
         d="m 785.33,112.81 c -3.14,-4.84 -7.43,-9.07 -12.03,-12.52 -1.32,-0.99 -11.41,-7.99 -11.64,-2.84 -0.08,1.75 0.98,3.6 1.85,5.03 1.42,2.37 3.19,4.53 5.07,6.56 3.8,4.09 8.34,8.14 13.49,10.45 1.35,0.6 4.36,1.85 5.34,0.09 0.85,-1.53 -0.45,-3.92 -1.18,-5.25 -0.27,-0.52 -0.58,-1.02 -0.9,-1.52 z"
         class="st203" />
    </g>
    <g
       style="stroke:#0044aa"
       id="POLYLINE_4870_"
       transform="matrix(-0.26458333,0,0,0.26458333,236.43959,140.82215)">
      <line
         style="fill:none;stroke:#0044aa;stroke-width:2.75;stroke-linecap:round;stroke-linejoin:round;stroke-miterlimit:10"
         id="line4660"
         y2="96.150002"
         x2="748.96002"
         y1="103.33"
         x1="746.57001"
         class="st203" />
    </g>
    <g
       style="stroke:#0044aa"
       id="POLYLINE_4869_"
       transform="matrix(-0.26458333,0,0,0.26458333,236.43959,140.82215)">
      <path
         style="fill:none;stroke:#0044aa;stroke-width:2.75;stroke-linecap:round;stroke-linejoin:round;stroke-miterlimit:10"
         inkscape:connector-curvature="0"
         id="path4663"
         d="m 771.85,134.79 c -2.83,-4.53 -5.81,-8.94 -9.07,-13.19 -3.15,-4.11 -6.52,-8.06 -10.02,-11.88 -2.01,-2.19 -4.07,-4.31 -6.19,-6.39"
         class="st203" />
    </g>
    <g
       style="stroke:#0044aa"
       id="POLYLINE_4868_"
       transform="matrix(-0.26458333,0,0,0.26458333,236.43959,140.82215)">
      <path
         style="fill:none;stroke:#0044aa;stroke-width:2.75;stroke-linecap:round;stroke-linejoin:round;stroke-miterlimit:10"
         inkscape:connector-curvature="0"
         id="path4666"
         d="m 797.49,123.06 c -0.81,1.67 -1.61,3.34 -2.42,5 -0.4,0.83 -0.73,1.88 -1.27,2.63 -0.2,0.29 -0.15,0.23 -0.5,0.37 -1.64,0.68 -3.43,1.12 -5.11,1.67 -2.39,0.78 -4.78,1.56 -7.17,2.34 -1.43,0.47 -2.85,0.93 -4.28,1.4"
         class="st203" />
    </g>
    <g
       style="stroke:#0044aa"
       id="POLYLINE_4867_"
       transform="matrix(-0.26458333,0,0,0.26458333,236.43959,140.82215)">
      <path
         style="fill:none;stroke:#0044aa;stroke-width:2.75;stroke-linecap:round;stroke-linejoin:round;stroke-miterlimit:10"
         inkscape:connector-curvature="0"
         id="path4669"
         d="m 815.39,177.5 c -2.19,-6.81 -4.26,-13.68 -6.62,-20.44 -2.27,-6.53 -5.1,-12.86 -8.45,-18.9 -1.75,-3.16 -3.65,-6.23 -5.66,-9.23"
         class="st203" />
    </g>
    <g
       style="stroke:#0044aa"
       id="POLYLINE_4866_"
       transform="matrix(-0.26458333,0,0,0.26458333,236.43959,140.82215)">
      <path
         style="fill:none;stroke:#0044aa;stroke-width:2.75;stroke-linecap:round;stroke-linejoin:round;stroke-miterlimit:10"
         inkscape:connector-curvature="0"
         id="path4672"
         d="m 756.89,93.34 c -6.89,-3.97 -14.11,-7.29 -21.68,-9.75 -7.91,-2.57 -16.1,-4.21 -24.39,-4.88 -8.04,-0.65 -16.15,-0.32 -24.11,0.93 -7.95,1.25 -15.74,3.48 -23.16,6.58 -7.29,3.05 -14.23,6.94 -20.63,11.58 -0.81,0.59 -1.6,1.18 -2.4,1.79"
         class="st203" />
    </g>
    <g
       style="stroke:#0044aa"
       id="POLYLINE_4865_"
       transform="matrix(-0.26458333,0,0,0.26458333,236.43959,140.82215)">
      <path
         style="fill:none;stroke:#0044aa;stroke-width:2.75;stroke-linecap:round;stroke-linejoin:round;stroke-miterlimit:10"
         inkscape:connector-curvature="0"
         id="path4675"
         d="m 779.1,131.38 c -2.99,-5.29 -6.5,-10.27 -10.3,-15.01 -3.75,-4.67 -7.79,-9.1 -12.1,-13.26 -2.5,-2.41 -5.1,-4.7 -7.73,-6.96 3.65,-1.51 7.43,-2.78 11.27,-3.72 0.99,-0.24 2.02,-0.53 3.03,-0.66 0.91,-0.12 1.91,0.69 2.72,1.14 1.64,0.91 3.26,1.86 4.84,2.87 6.86,4.38 13,9.78 18.31,15.94 3.08,3.56 5.86,7.36 8.35,11.35 -5.37,2.43 -10.74,4.85 -16.11,7.28 -0.75,0.34 -1.52,0.68 -2.28,1.03 z"
         class="st203" />
    </g>
    <g
       style="stroke:#0044aa"
       id="POLYLINE_4864_"
       transform="matrix(-0.26458333,0,0,0.26458333,236.43959,140.82215)">
      <line
         style="fill:none;stroke:#0044aa;stroke-width:2.75;stroke-linecap:round;stroke-linejoin:round;stroke-miterlimit:10"
         id="line4678"
         y2="131.38"
         x2="779.09998"
         y1="136.49001"
         x1="776.73999"
         class="st203" />
    </g>
    <g
       style="stroke:#0044aa"
       id="POLYLINE_4863_"
       transform="matrix(-0.26458333,0,0,0.26458333,236.43959,140.82215)">
      <path
         style="fill:none;stroke:#0044aa;stroke-width:2.75;stroke-linecap:round;stroke-linejoin:round;stroke-miterlimit:10"
         inkscape:connector-curvature="0"
         id="path4681"
         d="m 778.9,137.99 c -3.1,-2.54 -7.31,-4.11 -11.26,-2.8 -4.92,1.63 -7.26,6.88 -7.58,11.71 -0.39,5.88 1.72,12.01 5.57,16.46 3.22,3.73 8.32,6.7 13.36,5.19 4.79,-1.43 7.25,-6.31 7.76,-10.97 0.07,-0.63 0.11,-1.26 0.11,-1.9 -1.9,0.81 -3.79,1.78 -5.74,2.44 -0.86,0.29 -1.77,0.34 -2.66,0.19 -1.88,-0.32 -3.53,-1.47 -4.78,-2.87 -2.78,-3.12 -4.15,-8.06 -2.58,-12.06 1.4,-3.55 5.31,-4.4 8.51,-5.77"
         class="st203" />
    </g>
    <g
       style="stroke:#0044aa"
       id="POLYLINE_4862_"
       transform="matrix(-0.26458333,0,0,0.26458333,236.43959,140.82215)">
      <path
         style="fill:none;stroke:#0044aa;stroke-width:2.75;stroke-linecap:round;stroke-linejoin:round;stroke-miterlimit:10"
         inkscape:connector-curvature="0"
         id="path4684"
         d="m 618.81,114.46 c -1.62,-1.84 -3.24,-3.68 -4.86,-5.52 -0.44,-0.5 -0.43,-0.41 0.05,-0.83 0.76,-0.67 1.53,-1.34 2.29,-2.02 2.33,-2.05 4.65,-4.1 6.98,-6.15 1.02,-0.9 2.03,-1.79 3.05,-2.69 0.23,-0.2 1.17,-1.32 1.49,-1.31 0.14,0 0.36,0.34 0.47,0.47 0.52,0.59 1.04,1.18 1.57,1.78 0.84,0.96 1.68,1.91 2.53,2.87"
         class="st203" />
    </g>
    <g
       style="stroke:#0044aa"
       id="POLYLINE_4861_"
       transform="matrix(-0.26458333,0,0,0.26458333,236.43959,140.82215)">
      <line
         style="fill:none;stroke:#0044aa;stroke-width:2.75;stroke-linecap:round;stroke-linejoin:round;stroke-miterlimit:10"
         id="line4687"
         y2="78.43"
         x2="699.84003"
         y1="84.889999"
         x1="679.78003"
         class="st203" />
    </g>
    <g
       style="stroke:#0044aa"
       id="POLYLINE_4860_"
       transform="matrix(-0.26458333,0,0,0.26458333,236.43959,140.82215)">
      <line
         style="fill:none;stroke:#0044aa;stroke-width:2.75;stroke-linecap:round;stroke-linejoin:round;stroke-miterlimit:10"
         id="line4690"
         y2="87.129997"
         x2="672.84998"
         y1="93.470001"
         x1="653.15997"
         class="st203" />
    </g>
    <g
       style="stroke:#0044aa"
       id="POLYLINE_4859_"
       transform="matrix(-0.26458333,0,0,0.26458333,236.43959,140.82215)">
      <line
         style="fill:none;stroke:#0044aa;stroke-width:2.75;stroke-linecap:round;stroke-linejoin:round;stroke-miterlimit:10"
         id="line4693"
         y2="123.5"
         x2="626.31"
         y1="126.47"
         x1="617.08002"
         class="st203" />
    </g>
    <g
       style="stroke:#0044aa"
       id="POLYLINE_4858_"
       transform="matrix(-0.26458333,0,0,0.26458333,236.43959,140.82215)">
      <path
         style="fill:none;stroke:#0044aa;stroke-width:2.75;stroke-linecap:round;stroke-linejoin:round;stroke-miterlimit:10"
         inkscape:connector-curvature="0"
         id="path4696"
         d="m 626.31,123.5 c 3.21,-6.48 7.07,-12.6 11.69,-18.18 1.35,-1.64 2.78,-3.21 4.23,-4.76"
         class="st203" />
    </g>
    <g
       style="stroke:#0044aa"
       id="POLYLINE_4857_"
       transform="matrix(-0.26458333,0,0,0.26458333,236.43959,140.82215)">
      <path
         style="fill:none;stroke:#0044aa;stroke-width:2.75;stroke-linecap:round;stroke-linejoin:round;stroke-miterlimit:10"
         inkscape:connector-curvature="0"
         id="path4699"
         d="m 617.08,126.47 c -0.95,-1.87 -1.53,-4.07 -1.27,-6.18 0.27,-2.15 1.51,-4 2.84,-5.64 2.69,-3.31 5.89,-6.21 8.95,-9.18 2.26,-2.19 4.53,-4.8 7.42,-6.16 2.61,-1.22 4.94,-0.15 7.2,1.26"
         class="st203" />
    </g>
    <g
       style="stroke:#0044aa"
       id="POLYLINE_4856_"
       transform="matrix(-0.26458333,0,0,0.26458333,236.43959,140.82215)">
      <path
         style="fill:none;stroke:#0044aa;stroke-width:2.75;stroke-linecap:round;stroke-linejoin:round;stroke-miterlimit:10"
         inkscape:connector-curvature="0"
         id="path4702"
         d="m 616.6,125.4 c -2.36,3.65 -4.55,7.39 -6.5,11.28 -1.9,3.78 -3.58,7.68 -5.02,11.66 -1.47,4.04 -2.72,8.16 -3.73,12.34 -1.03,4.27 -1.82,8.6 -2.37,12.96 -0.52,4.17 -0.81,8.36 -0.89,12.56 -0.08,4.17 0.07,8.35 0.44,12.5 0.4,4.42 1.02,8.82 1.89,13.18 0.8,4.02 1.82,8.01 3.03,11.93 1.21,3.89 2.49,7.77 3.74,11.65 1.71,5.3 3.42,10.61 5.12,15.91 0.11,0.33 0.21,0.65 0.32,0.98 4.3,-1.39 8.6,-2.77 12.9,-4.16 9.92,-3.2 19.84,-6.39 29.76,-9.59 11.04,-3.56 22.08,-7.11 33.12,-10.67 7.74,-2.49 15.49,-4.99 23.23,-7.48 2.33,-0.75 4.65,-1.5 6.98,-2.25 7.52,-2.42 15.05,-4.85 22.57,-7.27 10.99,-3.54 21.99,-7.08 32.98,-10.62 10.03,-3.23 20.05,-6.46 30.08,-9.69 3.28,-1.06 6.56,-2.11 9.83,-3.17 0.95,-0.31 1.9,-0.61 2.85,-0.92 0.18,-0.06 1.08,-0.21 1.19,-0.38 0.17,-0.29 -0.55,-1.82 -0.66,-2.15 -0.72,-2.24 -1.44,-4.47 -2.16,-6.71 -1.66,-5.15 -3.32,-10.3 -4.98,-15.46 -0.31,-0.96 -0.62,-1.93 -0.93,-2.89"
         class="st203" />
    </g>
    <g
       style="stroke:#0044aa"
       id="POLYLINE_4855_"
       transform="matrix(-0.26458333,0,0,0.26458333,236.43959,140.82215)">
      <path
         style="fill:none;stroke:#0044aa;stroke-width:2.75;stroke-linecap:round;stroke-linejoin:round;stroke-miterlimit:10"
         inkscape:connector-curvature="0"
         id="path4705"
         d="m 633.61,121.15 c 1.87,-3.89 3.9,-7.68 6.27,-11.29 2.45,-3.73 5.15,-7.29 8.04,-10.68 1.67,-1.97 3.43,-3.86 5.24,-5.7"
         class="st203" />
    </g>
    <g
       style="stroke:#0044aa"
       id="POLYLINE_4854_"
       transform="matrix(-0.26458333,0,0,0.26458333,236.43959,140.82215)">
      <path
         style="fill:none;stroke:#0044aa;stroke-width:2.75;stroke-linecap:round;stroke-linejoin:round;stroke-miterlimit:10"
         inkscape:connector-curvature="0"
         id="path4708"
         d="m 779.62,137.61 c -3.32,1.46 -4.14,5.58 -3.66,8.83 0.53,3.63 2.71,7.47 6.16,9.05 3.34,1.53 6.81,-0.13 8.02,-3.58 1.2,-3.43 0.3,-7.47 -1.67,-10.43 -1.59,-2.38 -4.3,-4.57 -7.33,-4.26 -0.52,0.05 -1.03,0.18 -1.52,0.39 z"
         class="st203" />
    </g>
    <g
       style="stroke:#0044aa"
       id="POLYLINE_4853_"
       transform="matrix(-0.26458333,0,0,0.26458333,236.43959,140.82215)">
      <path
         style="fill:none;stroke:#0044aa;stroke-width:2.75;stroke-linecap:round;stroke-linejoin:round;stroke-miterlimit:10"
         inkscape:connector-curvature="0"
         id="path4711"
         d="m 740.82,270.35 c -0.01,-4.02 -1.26,-8 -3.58,-11.29 -2.31,-3.29 -5.63,-5.81 -9.42,-7.17 -3.79,-1.36 -7.95,-1.51 -11.83,-0.44 -3.87,1.07 -7.38,3.35 -9.93,6.45 -2.54,3.1 -4.09,6.96 -4.4,10.95 -0.31,4.02 0.66,8.1 2.73,11.56 2.06,3.45 5.19,6.21 8.86,7.84 3.66,1.63 7.79,2.09 11.72,1.32 3.95,-0.77 7.61,-2.78 10.39,-5.68 2.77,-2.89 4.61,-6.62 5.21,-10.58 0.17,-0.98 0.25,-1.97 0.25,-2.96 z"
         class="st203" />
    </g>
    <g
       style="stroke:#0044aa"
       id="POLYLINE_4852_"
       transform="matrix(-0.26458333,0,0,0.26458333,236.43959,140.82215)">
      <path
         style="fill:none;stroke:#0044aa;stroke-width:2.75;stroke-linecap:round;stroke-linejoin:round;stroke-miterlimit:10"
         inkscape:connector-curvature="0"
         id="path4714"
         d="m 727.83,270.35 c 0,-2.79 -1.82,-5.35 -4.47,-6.25 -2.63,-0.9 -5.63,-0.02 -7.35,2.17 -1.65,2.1 -1.86,5.07 -0.53,7.38 1.39,2.41 4.23,3.72 6.96,3.2 2.73,-0.52 4.9,-2.77 5.31,-5.52 0.06,-0.33 0.08,-0.66 0.08,-0.98 z"
         class="st203" />
    </g>
    <g
       style="stroke:#0044aa"
       id="POLYLINE_4851_"
       transform="matrix(-0.26458333,0,0,0.26458333,236.43959,140.82215)">
      <path
         style="fill:none;stroke:#0044aa;stroke-width:2.75;stroke-linecap:round;stroke-linejoin:round;stroke-miterlimit:10"
         inkscape:connector-curvature="0"
         id="path4717"
         d="m 731.65,286.94 c 2.13,3.38 4.25,6.76 6.38,10.14 0.32,0.51 1.22,1.48 1.26,2.08 0.01,0.23 -0.2,0.61 -0.26,0.83 -1.31,4.09 -2.62,8.18 -3.92,12.27 -2.45,7.67 -4.91,15.34 -7.36,23.01 -3.09,9.65 -6.17,19.31 -9.26,28.96 -3.21,10.04 -6.42,20.08 -9.63,30.12 -2.82,8.83 -5.64,17.65 -8.47,26.48 -1.92,6.01 -3.85,12.03 -5.77,18.04 -0.46,1.45 -0.93,2.91 -1.39,4.36 -0.29,0.9 -0.19,0.8 -1.14,0.49 -7.7,-2.46 -15.4,-4.93 -23.1,-7.39 -8.04,-2.57 -16.09,-5.14 -24.13,-7.72 -0.46,-0.15 -0.92,-0.3 -1.39,-0.44 0.49,-1.54 0.98,-3.08 1.48,-4.62 1.32,-4.14 2.65,-8.29 3.97,-12.43 1.93,-6.04 3.86,-12.08 5.79,-18.12 2.31,-7.23 4.62,-14.45 6.93,-21.68 2.45,-7.67 4.91,-15.35 7.36,-23.02 2.39,-7.48 4.78,-14.96 7.17,-22.44 2.09,-6.54 4.19,-13.09 6.28,-19.63 1.57,-4.9 3.13,-9.8 4.7,-14.7 0.82,-2.55 1.63,-5.1 2.44,-7.65 0.23,-0.73 0.28,-0.65 1.08,-0.98 3.3,-1.36 6.6,-2.72 9.91,-4.08 0.84,-0.34 1.67,-0.69 2.51,-1.03"
         class="st203" />
    </g>
    <g
       style="stroke:#0044aa"
       id="POLYLINE_4850_"
       transform="matrix(-0.26458333,0,0,0.26458333,236.43959,140.82215)">
      <path
         style="fill:none;stroke:#0044aa;stroke-width:2.75;stroke-linecap:round;stroke-linejoin:round;stroke-miterlimit:10"
         inkscape:connector-curvature="0"
         id="path4720"
         d="m 723.06,349.93 c 6.17,-1.18 12.34,-2.36 18.51,-3.54 1.56,-0.3 3.12,-0.6 4.68,-0.9 0.4,-0.08 1.59,-0.08 1.91,-0.37 0.13,-0.11 0.19,-0.58 0.24,-0.74 0.23,-0.72 0.46,-1.45 0.69,-2.17 1.97,-6.15 3.93,-12.3 5.9,-18.46 2.51,-7.85 5.02,-15.7 7.53,-23.55 1.55,-4.84 3.09,-9.67 4.64,-14.51 1.27,-3.96 2.12,-8.02 2.39,-12.18 0.31,-4.75 -0.08,-9.55 -1.16,-14.19 -1.16,-4.95 -3.09,-9.7 -5.72,-14.05 -2.76,-4.58 -6.29,-8.69 -10.39,-12.11 -3.97,-3.32 -8.48,-5.99 -13.29,-7.9 -4.59,-1.81 -9.47,-2.92 -14.4,-3.26 -4.65,-0.32 -9.35,0.02 -13.9,1.04 -4.94,1.1 -9.7,2.98 -14.06,5.54 -4.54,2.67 -8.64,6.09 -12.08,10.08 -3.38,3.91 -6.12,8.36 -8.1,13.13 -1.34,3.23 -2.3,6.63 -3.36,9.95 -2.23,6.97 -4.45,13.93 -6.68,20.9 -2.42,7.56 -4.83,15.11 -7.25,22.67 -0.8,2.52 -1.61,5.03 -2.41,7.55 -0.22,0.7 -0.45,1.39 -0.67,2.09 -0.05,0.16 -0.24,0.5 -0.19,0.66 0.13,0.49 1.2,1.25 1.53,1.61 1.11,1.17 2.23,2.33 3.34,3.5 2.83,2.96 5.67,5.93 8.5,8.89 1.43,1.49 2.85,2.98 4.28,4.47"
         class="st203" />
    </g>
    <g
       style="stroke:#0044aa"
       id="POLYLINE_4849_"
       transform="matrix(-0.26458333,0,0,0.26458333,236.43959,140.82215)">
      <path
         style="fill:none;stroke:#0044aa;stroke-width:2.75;stroke-linecap:round;stroke-linejoin:round;stroke-miterlimit:10"
         inkscape:connector-curvature="0"
         id="path4723"
         d="m 668.22,436.09 c -5.3,-1.69 -10.6,-3.39 -15.9,-5.08 -0.77,-0.24 -1.53,-0.49 -2.3,-0.73 0.41,-1.27 0.81,-2.54 1.22,-3.82 1.11,-3.48 2.23,-6.96 3.34,-10.44 1.64,-5.13 3.28,-10.26 4.92,-15.38 2.01,-6.29 4.02,-12.57 6.03,-18.86 2.19,-6.85 4.38,-13.71 6.58,-20.56 2.21,-6.92 4.43,-13.84 6.64,-20.76 2.07,-6.48 4.15,-12.96 6.22,-19.45 1.74,-5.45 3.49,-10.91 5.23,-16.36 1.26,-3.94 2.52,-7.88 3.78,-11.82 0.39,-1.22 0.78,-2.44 1.17,-3.66 0.17,-0.53 0.28,-1.46 0.61,-1.92 0.04,-0.06 0.05,-0.17 0.08,-0.24 3.01,4.5 7.1,8.17 11.96,10.57 4.82,2.38 10.27,3.44 15.63,3.05 3.02,-0.22 5.96,-0.91 8.79,-1.98 -0.52,1.61 -1.03,3.23 -1.55,4.84 -1.38,4.31 -2.76,8.62 -4.13,12.92 -2.01,6.27 -4.01,12.54 -6.02,18.81 -2.37,7.42 -4.75,14.84 -7.12,22.27 -2.52,7.87 -5.03,15.73 -7.55,23.6 -2.39,7.49 -4.79,14.97 -7.18,22.46 -2.05,6.4 -4.09,12.8 -6.14,19.2 -1.44,4.5 -2.88,9 -4.32,13.5 -0.42,1.31 -0.84,2.62 -1.26,3.94 -0.09,0.28 -0.28,1.52 -0.54,1.68 -0.16,0.1 -0.82,-0.22 -1.01,-0.28 -1.44,-0.46 -2.88,-0.92 -4.31,-1.38 -3.59,-1.15 -7.18,-2.3 -10.77,-3.44 -0.7,-0.23 -1.4,-0.45 -2.1,-0.68 z"
         class="st203" />
    </g>
    <g
       style="stroke:#0044aa"
       id="POLYLINE_4848_"
       transform="matrix(-0.26458333,0,0,0.26458333,236.43959,140.82215)">
      <path
         style="fill:none;stroke:#0044aa;stroke-width:2.75;stroke-linecap:round;stroke-linejoin:round;stroke-miterlimit:10"
         inkscape:connector-curvature="0"
         id="path4726"
         d="m 656.33,387.95 c -0.39,-1.21 -0.78,-2.42 -1.17,-3.63 -1.06,-3.28 -2.11,-6.55 -3.17,-9.83 -1.57,-4.87 -3.14,-9.74 -4.71,-14.61 -1.91,-5.94 -3.83,-11.89 -5.74,-17.83 -2.1,-6.51 -4.19,-13.02 -6.29,-19.53 -2.11,-6.54 -4.21,-13.08 -6.32,-19.62 -1.97,-6.13 -3.95,-12.26 -5.92,-18.38 -1.67,-5.18 -3.34,-10.36 -5,-15.53 -1.19,-3.71 -2.39,-7.41 -3.58,-11.12 -0.38,-1.16 -0.75,-2.33 -1.13,-3.49 -0.16,-0.5 -0.59,-1.27 -0.58,-1.81 0,-0.07 -0.05,-0.16 -0.07,-0.23 2.05,-0.66 4.09,-1.32 6.14,-1.98 5.51,-1.78 11.02,-3.55 16.53,-5.33 8.1,-2.61 16.2,-5.22 24.31,-7.83 9.74,-3.14 19.48,-6.28 29.23,-9.41 10.5,-3.38 21.01,-6.77 31.51,-10.15 10.36,-3.34 20.72,-6.68 31.09,-10.01 9.32,-3 18.64,-6.01 27.96,-9.01 7.38,-2.38 14.76,-4.75 22.14,-7.13 4.54,-1.46 9.08,-2.92 13.61,-4.39 0.78,-0.25 1.94,-0.89 2.77,-0.89 0.37,0 0.26,-0.01 0.41,0.46 0.93,2.89 1.86,5.79 2.8,8.68 1.9,5.89 3.8,11.78 5.69,17.67 2.63,8.15 5.25,16.3 7.88,24.45 3.11,9.65 6.21,19.29 9.32,28.94 3.36,10.44 6.72,20.87 10.09,31.31 3.38,10.5 6.76,21 10.15,31.5 3.17,9.84 6.34,19.67 9.51,29.51 2.72,8.45 5.44,16.89 8.16,25.34 2.04,6.33 4.08,12.65 6.11,18.98 1.12,3.48 2.24,6.97 3.37,10.45 0.14,0.45 0.29,0.9 0.43,1.34 -1.83,0.59 -3.66,1.18 -5.49,1.77 -4.98,1.6 -9.96,3.21 -14.94,4.81 -7.37,2.37 -14.73,4.75 -22.1,7.12 -9.02,2.9 -18.03,5.81 -27.05,8.71 -9.85,3.17 -19.69,6.34 -29.54,9.52 -9.94,3.2 -19.88,6.4 -29.82,9.6 -9.27,2.99 -18.53,5.97 -27.8,8.96 -7.83,2.52 -15.66,5.04 -23.49,7.57 -5.63,1.81 -11.26,3.63 -16.89,5.44 -2.67,0.86 -5.33,1.72 -8,2.58 -0.11,0.04 -0.23,0.07 -0.34,0.11"
         class="st203" />
    </g>
    <g
       style="stroke:#0044aa"
       id="POLYLINE_4733_"
       transform="matrix(-0.26458333,0,0,0.26458333,236.43959,140.82215)">
      <path
         style="fill:none;stroke:#0044aa;stroke-width:2.75;stroke-linecap:round;stroke-linejoin:round;stroke-miterlimit:10"
         inkscape:connector-curvature="0"
         id="path5070"
         d="m 621.2,492.04 c 1.37,4.63 4.78,8.46 8.48,11.42 3.91,3.12 8.43,5.48 13.14,7.14 2.83,1 5.74,1.73 8.7,2.22"
         class="st203" />
    </g>
    <g
       style="stroke:#0044aa"
       id="POLYLINE_4732_"
       transform="matrix(-0.26458333,0,0,0.26458333,236.43959,140.82215)">
      <line
         style="fill:none;stroke:#0044aa;stroke-width:2.75;stroke-linecap:round;stroke-linejoin:round;stroke-miterlimit:10"
         id="line5073"
         y2="512.82001"
         x2="629.04999"
         y1="498.64001"
         x1="624.79999"
         class="st203" />
    </g>
    <g
       transform="matrix(-0.26458333,0,0,0.26458333,236.43959,140.82215)"
       id="POLYLINE_1_">
      <path
         style="fill:none;stroke:#0044aa;stroke-width:3.5;stroke-linecap:round;stroke-linejoin:round;stroke-miterlimit:10"
         inkscape:connector-curvature="0"
         id="path5082"
         d="m 756.89,93.34 c -4.11,-2.38 -8.35,-4.54 -12.72,-6.4 -4.28,-1.82 -8.68,-3.36 -13.15,-4.62 -4.45,-1.25 -8.98,-2.2 -13.56,-2.87 -4.58,-0.67 -9.22,-1.02 -13.85,-1.06 -4.77,-0.04 -9.54,0.25 -14.28,0.87 -4.71,0.62 -9.37,1.59 -13.95,2.85 -4.55,1.25 -9.02,2.86 -13.34,4.75 -4.15,1.81 -8.18,3.9 -12.05,6.25 -1.96,1.19 -3.88,2.44 -5.76,3.76 -0.96,0.67 -1.91,1.36 -2.84,2.06 -0.53,0.4 -0.65,0.67 -1.22,0.47 -0.27,-0.09 -0.52,-0.23 -0.79,-0.32 -1.66,-0.58 -3.25,-0.39 -4.78,0.43 -0.69,0.37 -1.27,0.95 -1.95,1.3 -0.47,0.24 -0.41,0.07 -0.8,-0.37 -0.54,-0.61 -1.07,-1.22 -1.61,-1.83 -0.8,-0.91 -1.6,-1.81 -2.4,-2.72 -2.21,1.94 -4.41,3.89 -6.62,5.83 -1.61,1.41 -3.21,2.83 -4.82,4.24 -0.59,0.52 -1.18,1.04 -1.78,1.57 -0.21,0.18 -0.89,0.59 -0.97,0.86 -0.16,0.49 1.75,2.19 2.13,2.62 0.7,0.79 1.4,1.59 2.1,2.38 0.21,0.24 0.91,0.82 0.87,1.1 -0.05,0.39 -0.93,1.19 -1.17,1.54 -0.29,0.43 -0.57,0.86 -0.81,1.32 -0.26,0.49 -0.49,1 -0.66,1.53 -0.46,1.44 -0.45,2.96 -0.15,4.43 0.1,0.46 0.22,0.92 0.37,1.36 0.06,0.17 0.25,0.49 0.24,0.66 -0.02,0.29 -0.43,0.72 -0.59,0.97 -0.74,1.15 -1.46,2.31 -2.15,3.48 -3.02,5.12 -5.62,10.46 -7.8,15.99 -2.11,5.34 -3.8,10.86 -5.07,16.46 -1.29,5.69 -2.14,11.47 -2.58,17.28 -0.42,5.64 -0.43,11.31 -0.04,16.95 0.4,5.83 1.23,11.64 2.48,17.35 1.27,5.79 3.08,11.4 4.89,17.03 2.03,6.32 4.07,12.63 6.1,18.95 0.62,1.93 1.25,3.87 1.87,5.8 1.45,4.49 2.89,8.98 4.34,13.47 2.24,6.96 4.49,13.92 6.73,20.89 2.67,8.27 5.33,16.55 8,24.82 2.74,8.5 5.48,17 8.22,25.51 2.46,7.65 4.93,15.3 7.39,22.95 1.82,5.63 3.63,11.27 5.45,16.9 0.55,1.72 1.11,3.45 1.66,5.17 0.24,0.76 0.72,1.67 0.79,2.47 0.08,0.8 -0.51,1.87 -0.75,2.63 -1.04,3.24 -2.07,6.49 -3.11,9.73 -2.51,7.85 -5.02,15.71 -7.54,23.56 -0.47,1.48 -0.95,2.96 -1.42,4.44 -0.29,0 -0.69,-0.22 -0.97,-0.31 -0.72,-0.23 -1.44,-0.46 -2.15,-0.69 -0.39,-0.12 -1.41,-0.65 -1.68,-0.4 -0.27,0.24 -0.38,1.2 -0.49,1.54 -0.31,0.98 -0.63,1.96 -0.94,2.93 -1.71,5.35 -3.42,10.69 -5.13,16.04 -0.46,1.43 -0.92,2.86 -1.37,4.29 -1.47,-0.47 -2.94,-0.94 -4.41,-1.41 -1.95,6.11 -3.91,12.22 -5.86,18.34 -0.1,0.31 -0.17,0.93 -0.38,1.19 -0.18,0.22 -0.02,0.1 -0.39,0.17 -0.68,0.12 -1.49,0 -2.17,0 -1.06,0 -2.12,0 -3.17,0 -1.82,0 -5.36,-0.71 -5.57,1.99 -0.06,0.82 0,1.66 0,2.48 0,0.69 0.12,1.35 -0.22,1.93 -0.33,0.57 -0.71,1.07 -0.98,1.67 -0.51,1.16 -0.75,2.42 -0.7,3.69 0.05,1.47 0.5,2.92 1.28,4.17 0.35,0.56 0.61,0.75 0.61,1.41 0,1.22 0,2.43 0,3.65 0,7.16 0,14.32 0,21.48 0,0.16 0,0.33 0,0.49 -1.61,0 -3.23,0 -4.84,0 -0.65,0 -0.73,-0.1 -1.09,0.27 -1,1.05 -1.76,2.53 -2.58,3.72 -3.88,5.58 -7.76,11.17 -11.63,16.75 -4.92,7.09 -9.85,14.18 -14.77,21.27 -3.84,5.52 -7.67,11.04 -11.51,16.57 -0.54,0.77 -1.08,1.55 -1.61,2.32 -0.28,0.4 -0.72,0.85 -0.91,1.31 -0.15,0.36 -0.17,0.22 0.1,0.65 0.85,1.32 1.69,2.64 2.54,3.95 1.15,1.79 2.3,3.58 3.45,5.37 0.46,0.71 0.91,1.42 1.37,2.13 0.21,0.32 0.46,0.98 0.78,1.21 0.47,0.35 1.83,0.1 2.42,0.1 5.91,0 11.82,0 17.73,0 8.56,0 17.11,0 25.67,0 7.41,0 14.81,0 22.22,0 2.65,0 5.29,0 7.94,0 4.36,0 8.72,0 13.08,0 8.16,0 16.31,0 24.47,0 8.18,0 16.36,0 24.55,0 2.88,0 5.76,0 8.65,0 0.94,0 1.87,0 2.81,0 0.47,0 1.09,0.11 1.56,0 0.37,-0.08 0.3,-0.06 0.57,-0.48 0.87,-1.35 1.73,-2.7 2.6,-4.05 1.15,-1.79 2.29,-3.57 3.44,-5.36 0.45,-0.7 0.89,-1.39 1.34,-2.09 0.17,-0.26 0.68,-0.8 0.72,-1.12 0.06,-0.52 -1,-1.6 -1.3,-2.04 -1.37,-1.98 -2.75,-3.96 -4.12,-5.94 -4.4,-6.33 -8.79,-12.66 -13.19,-18.99 -4.83,-6.95 -9.66,-13.9 -14.48,-20.85 -3.11,-4.48 -6.23,-8.97 -9.34,-13.45 -0.22,-0.31 -0.47,-0.89 -0.78,-1.12 -0.26,-0.19 -0.52,-0.13 -0.89,-0.13 -3.68,0 -7.36,0 -11.05,0 -2.63,0 -5.25,0 -7.88,0 2.37,-0.45 4.71,-1.17 6.84,-2.31 0.45,-0.24 0.89,-0.5 1.31,-0.77 0.28,-0.19 0.71,-0.64 1.04,-0.74 0.33,-0.09 0.82,0.18 1.16,0.29 0.89,0.29 1.79,0.57 2.68,0.86 3.03,0.97 6.15,2.48 9.39,1.64 2.7,-0.7 4.92,-2.75 5.84,-5.38 0.73,-2.11 0.59,-4.47 -0.4,-6.47 -1.76,-3.59 -5.2,-4.37 -8.69,-5.49 -0.56,-0.18 -1.12,-0.36 -1.68,-0.54 0.38,-1.2 0.76,-2.39 1.15,-3.59 1.47,0.47 2.94,0.94 4.41,1.41 1.08,-3.38 2.16,-6.75 3.24,-10.13 0.2,-0.64 0.34,-1.42 0.65,-2.02 0.18,-0.35 0.07,-0.24 0.46,-0.41 1.73,-0.76 3.7,-1.19 5.5,-1.77 0.97,-0.31 1.94,-0.62 2.91,-0.94 0.24,-0.08 0.83,-0.4 1.08,-0.34 0.42,0.1 1.1,0.98 1.41,1.26 2.74,2.46 5.48,4.91 8.22,7.37 3.4,3.05 6.8,6.1 10.2,9.14 1.31,1.17 2.62,2.35 3.93,3.52 0.54,0.48 1.32,1.53 2.01,1.8 0.31,0.12 0.52,-0.02 0.89,-0.14 1.12,-0.36 2.23,-0.72 3.35,-1.08 3.88,-1.25 7.77,-2.5 11.65,-3.75 6.89,-2.22 13.79,-4.45 20.68,-6.66 0.13,-0.04 0.26,-0.08 0.38,-0.12 -2.27,0.73 -4.16,2.43 -5.12,4.61 -0.76,1.73 -0.92,3.7 -0.44,5.53 0.59,2.27 2.15,4.23 4.23,5.32 1.69,0.89 3.67,1.18 5.55,0.8 1.46,-0.29 2.88,-0.87 4.29,-1.32 2.98,-0.96 5.96,-1.92 8.94,-2.88 0.21,-0.07 0.41,-0.13 0.62,-0.2 0.49,4.5 0.98,9 1.47,13.5 -0.6,0 -1.86,-0.25 -2.35,0.05 -0.19,0.12 -0.36,0.52 -0.49,0.7 -0.82,1.18 -1.64,2.36 -2.46,3.54 -3.12,4.49 -6.24,8.98 -9.35,13.47 -4.04,5.82 -8.09,11.64 -12.13,17.46 -3.79,5.45 -7.57,10.9 -11.36,16.36 -2.29,3.3 -4.58,6.59 -6.87,9.89 -0.43,0.63 -0.8,0.76 -0.38,1.41 1.62,2.52 3.23,5.04 4.85,7.56 0.83,1.29 1.66,2.58 2.48,3.87 0.19,0.3 0.53,1.14 0.85,1.31 0.2,0.1 0.72,0 0.94,0 0.74,0 1.48,0 2.22,0 5.76,0 11.53,0 17.29,0 6.97,0 13.94,0 20.92,0 3.66,0 7.33,0 10.99,0 2.76,0 5.52,0 8.28,0 6.62,0 13.24,0 19.86,0 6.68,0 13.36,0 20.04,0 2.22,0 4.43,0 6.65,0 0.6,0 1.2,0 1.8,0 0.14,0 0.48,0.06 0.61,-0.01 0.15,-0.08 0.31,-0.48 0.4,-0.62 0.29,-0.46 0.59,-0.92 0.88,-1.37 0.89,-1.39 1.79,-2.78 2.68,-4.17 0.92,-1.43 1.83,-2.86 2.75,-4.28 0.36,-0.55 0.71,-1.11 1.07,-1.66 0.16,-0.24 0.54,-0.63 0.59,-0.92 0.08,-0.42 -0.5,-0.98 -0.76,-1.36 -0.95,-1.36 -1.89,-2.73 -2.84,-4.09 -3.27,-4.71 -6.54,-9.41 -9.81,-14.12 -4.07,-5.86 -8.14,-11.72 -12.21,-17.58 -3.69,-5.32 -7.38,-10.63 -11.08,-15.95 -2.07,-2.98 -4.14,-5.97 -6.22,-8.95 -0.08,-0.12 -0.23,-0.44 -0.36,-0.52 -0.2,-0.11 -0.73,-0.01 -0.95,-0.01 -0.63,0 -1.26,0 -1.89,0 0.16,0 0.98,-6.25 1.05,-6.68 0.48,-3.06 0.96,-6.13 1.44,-9.19 0.14,-0.9 0.36,-0.99 1.07,-1.63 0.72,-0.65 1.4,-1.35 2.02,-2.1 0.77,-0.94 1.46,-1.97 1.94,-3.09 0.67,-1.56 0.92,-3.33 0.32,-4.96 4.4,-1.42 8.88,-2.67 13.21,-4.26 2.25,-0.83 4.09,-2.62 4.96,-4.86 0.67,-1.74 0.75,-3.68 0.21,-5.47 -0.68,-2.27 -2.34,-4.19 -4.49,-5.2 -1.72,-0.81 -3.69,-1.01 -5.54,-0.56 -0.21,0.05 -0.41,0.11 -0.61,0.17 5.23,-1.68 10.46,-3.37 15.68,-5.05 6.27,-2.02 12.54,-4.04 18.82,-6.06 0.41,-0.13 0.37,-0.08 0.53,-0.4 0.33,-0.69 0.37,-1.7 0.54,-2.44 0.74,-3.38 1.49,-6.76 2.23,-10.14 1.5,-6.8 2.99,-13.6 4.49,-20.39 0.1,-0.47 0.06,-0.61 0.4,-0.82 0.39,-0.24 1.01,-0.33 1.45,-0.47 0.79,-0.26 1.59,-0.51 2.38,-0.77 3.49,-1.12 6.98,-2.25 10.47,-3.37 0.24,-0.08 0.49,-0.16 0.73,-0.24 -0.39,-1.21 -0.78,-2.42 -1.17,-3.63 -1.09,-3.38 -2.17,-6.75 -3.26,-10.13 -1.66,-5.14 -3.31,-10.28 -4.97,-15.42 -2.11,-6.56 -4.23,-13.13 -6.34,-19.69 -2.45,-7.59 -4.89,-15.18 -7.34,-22.77 -2.64,-8.21 -5.29,-16.41 -7.93,-24.62 -2.74,-8.51 -5.48,-17.01 -8.22,-25.52 -2.7,-8.4 -5.41,-16.79 -8.11,-25.19 -2.54,-7.88 -5.08,-15.76 -7.61,-23.64 -2.27,-7.04 -4.54,-14.08 -6.8,-21.12 -1.87,-5.79 -3.73,-11.59 -5.6,-17.38 -1.34,-4.15 -2.68,-8.31 -4.01,-12.46 -0.7,-2.17 -1.4,-4.33 -2.09,-6.5 -1.02,-3.18 -2.05,-6.36 -3.07,-9.53 -1.96,-6.1 -3.89,-12.21 -5.89,-18.3 -1.73,-5.25 -3.82,-10.38 -6.25,-15.34 -1.3,-2.66 -2.69,-5.27 -4.19,-7.82 -0.78,-1.34 -1.58,-2.66 -2.41,-3.97 -0.33,-0.53 -0.67,-1.05 -1.02,-1.57 -0.34,-0.52 -0.89,-0.99 -0.77,-1.57 0.16,-0.79 0.82,-1.69 1.17,-2.42 0.42,-0.87 0.84,-1.75 1.27,-2.62 0.32,-0.66 0.21,-0.68 -0.2,-1.34 -0.39,-0.62 -0.8,-1.24 -1.21,-1.85 -1.64,-2.45 -3.41,-4.8 -5.28,-7.08 -3.62,-4.42 -7.68,-8.51 -12.11,-12.12 -4.26,-3.47 -8.88,-6.47 -13.73,-9.05 -0.9,-0.48 -1.09,-0.5 -2.09,-0.3 -0.63,0.13 -1.26,0.26 -1.88,0.41 -1.34,0.34 -2.61,0.7 -3.88,1.07 z"
         class="st205" />
    </g>
  </g>
</svg>
